<?xml version="1.0" standalone="no"?>
<!DOCTYPE svg PUBLIC "-//W3C//DTD SVG 20010904//EN"
 "http://www.w3.org/TR/2001/REC-SVG-20010904/DTD/svg10.dtd">
<svg version="1.0" xmlns="http://www.w3.org/2000/svg"
 width="1125.000000pt" height="2436.000000pt" viewBox="0 0 1125.000000 2436.000000"
 preserveAspectRatio="xMidYMid meet">
<metadata>
Created by potrace 1.16, written by Peter Selinger 2001-2019
</metadata>
<g transform="translate(0.000000,2436.000000) scale(0.100000,-0.100000)"
fill="#000000" stroke="none">
<path d="M0 21555 c0 -2236 3 -2806 12 -2809 7 -2 171 -18 363 -35 193 -18
438 -41 545 -51 107 -10 299 -28 425 -39 127 -12 241 -23 254 -26 13 -2 130
-14 260 -25 225 -20 425 -40 611 -60 47 -5 227 -21 400 -35 173 -13 347 -29
385 -35 39 -6 270 -26 515 -45 245 -20 479 -40 520 -45 41 -5 219 -21 395 -35
292 -22 531 -43 595 -50 14 -2 140 -13 280 -25 241 -20 495 -42 854 -75 88 -9
160 -14 162 -12 3 3 -530 542 -1635 1652 -545 549 -1779 1797 -1919 1941 -7 8
-11 14 -8 14 5 0 2981 -2980 3370 -3375 140 -142 239 -235 244 -230 5 6 33 39
61 74 51 62 202 239 342 400 36 42 119 139 184 216 65 77 121 142 124 145 4 3
41 46 83 95 42 50 174 204 295 343 120 140 267 315 326 390 217 273 285 359
387 490 58 74 116 149 130 167 14 18 72 92 130 165 58 73 116 147 130 165 197
259 310 394 332 397 25 3 35 -2 -192 106 -58 28 -166 79 -240 115 -135 65
-280 134 -485 232 -60 29 -168 81 -240 115 -71 34 -173 83 -225 107 -52 25
-160 77 -240 115 -194 94 -340 164 -550 263 -189 89 -362 172 -560 268 -69 33
-174 83 -235 112 -60 29 -168 80 -240 115 -71 34 -191 92 -265 127 -74 36
-215 103 -312 149 -98 46 -185 88 -195 94 -23 13 -393 190 -398 190 -2 0 -99
47 -217 104 -117 57 -249 120 -293 141 -44 21 -143 68 -220 105 -77 37 -194
93 -260 125 -66 32 -194 94 -285 137 -91 44 -205 99 -255 123 -263 126 -363
174 -495 239 l-145 71 -1302 2 -1303 3 0 -2805z m525 2696 c-6 -5 -25 10 -25
20 0 5 6 4 14 -3 8 -7 12 -15 11 -17z m5335 -5884 c0 -2 -12 -14 -27 -28 l-28
-24 24 28 c23 25 31 32 31 24z m-70 -71 c0 -2 -8 -10 -17 -17 -16 -13 -17 -12
-4 4 13 16 21 21 21 13z"/>
<path d="M2655 24347 c11 -8 90 -47 175 -87 85 -40 207 -97 270 -128 63 -30
156 -74 205 -97 50 -24 151 -72 225 -107 74 -36 185 -89 245 -117 61 -29 126
-60 145 -71 19 -10 103 -50 185 -88 83 -38 213 -100 290 -137 77 -37 187 -90
245 -117 58 -28 155 -74 215 -103 61 -29 153 -73 205 -98 52 -25 149 -71 215
-102 66 -32 163 -78 215 -102 52 -25 154 -74 225 -108 72 -34 171 -82 220
-105 96 -45 223 -106 450 -215 366 -175 431 -205 441 -205 5 0 15 -5 21 -11 8
-8 152 -79 448 -219 39 -18 144 -69 235 -113 91 -43 248 -119 350 -167 102
-48 257 -122 345 -165 88 -42 196 -94 240 -115 44 -21 143 -68 220 -104 l139
-67 156 155 c85 86 160 159 165 163 16 13 -237 -248 -272 -280 -18 -16 -33
-33 -33 -38 0 -4 28 -21 63 -37 34 -16 115 -55 179 -87 l118 -57 112 26 c62
14 176 40 253 57 77 16 221 48 320 70 99 22 262 58 363 80 100 21 210 46 243
54 34 9 125 29 203 46 77 16 148 31 156 33 8 3 92 21 185 40 94 20 180 38 193
41 22 5 22 7 22 180 0 96 -3 175 -8 175 -4 0 -41 -9 -81 -20 -41 -12 -146 -37
-234 -56 -87 -19 -163 -36 -167 -39 -4 -2 -60 -16 -126 -30 -65 -14 -182 -41
-259 -59 -328 -79 -418 -101 -555 -131 -80 -18 -224 -52 -320 -75 -438 -104
-400 -97 -400 -76 0 7 54 76 121 152 320 369 492 567 577 663 84 97 110 133
80 115 -7 -4 -8 -3 -4 4 4 6 14 8 23 5 11 -4 14 -2 9 5 -4 6 25 44 68 89 40
43 98 106 127 140 30 33 126 143 214 244 88 100 225 257 305 349 239 275 514
591 574 660 l56 65 -1 167 0 168 -4307 0 c-3615 0 -4303 -2 -4287 -13z m8465
-177 c-8 -5 -19 -10 -25 -10 -5 0 -3 5 5 10 8 5 20 10 25 10 6 0 3 -5 -5 -10z
m-105 -43 c-24 -14 -128 -57 -135 -56 -8 1 134 68 145 68 6 0 1 -5 -10 -12z
m-155 -67 c-8 -5 -19 -10 -25 -10 -5 0 -3 5 5 10 8 5 20 10 25 10 6 0 3 -5 -5
-10z m-50 -15 c0 -6 -128 -65 -138 -64 -4 0 25 16 63 34 81 39 75 37 75 30z
m-170 -80 c-14 -8 -29 -14 -35 -14 -5 0 1 6 15 14 14 8 30 14 35 14 6 0 -1 -6
-15 -14z m-95 -40 c-65 -31 -83 -31 -25 0 25 13 52 24 60 24 8 0 -7 -11 -35
-24z m-96 -39 c-11 -9 -292 -127 -295 -123 -5 4 275 126 290 127 5 0 7 -2 5
-4z m-329 -141 c-14 -8 -29 -14 -35 -14 -5 0 1 6 15 14 14 8 30 14 35 14 6 0
-1 -6 -15 -14z m-70 -30 c-14 -8 -29 -14 -35 -14 -5 0 1 6 15 14 14 8 30 14
35 14 6 0 -1 -6 -15 -14z m-60 -24 c-8 -5 -91 -41 -185 -81 -93 -39 -179 -75
-190 -80 -11 -5 -58 -26 -105 -46 -187 -79 -347 -147 -375 -159 -98 -43 -282
-121 -425 -180 -63 -27 -119 -51 -125 -56 -5 -4 -39 -19 -75 -32 -36 -14 -119
-49 -185 -77 -124 -53 -433 -184 -590 -250 -49 -21 -175 -75 -279 -119 -104
-45 -192 -79 -194 -76 -3 2 6 9 19 14 27 10 384 161 534 226 55 24 188 80 295
125 222 93 303 128 410 175 41 18 210 90 375 160 165 70 325 137 355 150 30
13 161 69 290 124 129 54 282 120 340 144 96 42 147 59 110 38z m-2763 -1177
c-16 -9 -31 -13 -34 -10 -3 3 5 10 18 15 37 15 47 12 16 -5z m-48 -18 c-9 -9
-221 -97 -225 -94 -2 2 45 25 104 51 97 42 133 55 121 43z m2661 -69 c0 -2
-12 -14 -27 -28 l-28 -24 24 28 c23 25 31 32 31 24z m-2905 -36 c-6 -5 -21
-12 -35 -15 l-25 -7 25 15 c28 17 50 21 35 7z m2834 -38 c-24 -29 -49 -53 -56
-53 -4 0 8 16 27 35 36 37 52 47 29 18z m-86 -87 c-12 -21 -397 -413 -392
-399 3 10 388 409 397 412 2 1 -1 -5 -5 -13z m-448 -465 c-27 -28 -51 -49 -53
-46 -3 2 17 27 44 55 26 27 50 47 52 45 3 -2 -17 -27 -43 -54z"/>
<path d="M11150 23879 c-52 -62 -99 -117 -105 -123 -5 -6 -50 -58 -100 -116
-49 -58 -92 -107 -96 -110 -3 -3 -63 -72 -134 -155 -71 -82 -134 -155 -140
-161 -5 -6 -44 -53 -85 -103 -41 -51 -116 -138 -166 -194 -76 -84 -564 -645
-669 -769 -36 -42 -63 -74 -318 -368 -107 -124 -194 -226 -193 -227 2 -2 86
17 186 42 58 15 396 93 543 125 98 22 183 42 187 45 5 3 87 23 182 45 399 90
524 118 538 124 8 3 96 24 195 46 99 23 201 46 228 52 l47 11 0 973 c0 536 -1
974 -2 974 -2 0 -46 -50 -98 -111z m-70 -194 c-7 -9 -15 -13 -17 -11 -6 6 20
36 26 30 2 -2 -2 -10 -9 -19z m-160 -160 c-24 -25 -46 -45 -49 -45 -3 0 15 20
39 45 24 25 46 45 49 45 3 0 -15 -20 -39 -45z m-76 -79 c-3 -8 -13 -17 -22
-21 -13 -5 -13 -2 3 15 21 24 26 25 19 6z m-214 -220 c0 -3 -4 -8 -10 -11 -5
-3 -10 -1 -10 4 0 6 5 11 10 11 6 0 10 -2 10 -4z m-49 -49 c-10 -9 -11 -8 -5
6 3 10 9 15 12 12 3 -3 0 -11 -7 -18z"/>
<path d="M11145 21624 c-33 -7 -118 -27 -190 -43 -71 -17 -204 -46 -295 -66
-172 -38 -385 -85 -700 -155 -102 -23 -275 -61 -385 -85 -110 -24 -252 -56
-315 -70 -89 -19 -120 -30 -135 -48 -11 -13 -74 -93 -140 -177 -164 -210 -376
-479 -449 -572 -34 -42 -87 -110 -118 -150 -260 -330 -386 -492 -426 -543 -72
-93 -945 -1208 -975 -1245 -51 -63 -125 -157 -131 -168 -5 -8 137 60 315 151
301 152 572 290 1579 799 855 433 1589 804 2015 1019 l450 227 3 571 2 571
-22 -1 c-13 -1 -50 -7 -83 -15z"/>
<path d="M11065 20386 c-99 -51 -414 -211 -699 -355 -286 -144 -642 -325 -790
-401 -264 -134 -591 -299 -1551 -785 -258 -131 -588 -298 -731 -370 -144 -73
-268 -135 -275 -137 -8 -3 -11 -8 -8 -12 3 -3 39 7 80 24 41 16 160 59 264 95
105 37 199 70 210 75 20 10 103 39 490 176 116 40 287 101 380 134 94 34 197
71 230 82 33 11 69 24 80 29 11 5 79 29 150 54 239 84 579 204 695 246 63 22
158 56 210 74 52 19 172 61 265 95 365 131 792 282 965 341 63 22 139 49 168
61 l52 22 0 323 c0 178 -1 322 -2 322 -2 -1 -84 -43 -183 -93z"/>
<path d="M11195 19791 c-27 -10 -102 -37 -165 -60 -63 -23 -171 -62 -240 -86
-69 -24 -183 -65 -255 -91 -71 -25 -175 -61 -230 -80 -55 -18 -109 -38 -120
-44 -11 -6 -72 -28 -135 -49 -234 -80 -325 -112 -345 -121 -11 -5 -78 -30
-150 -55 -143 -51 -490 -173 -685 -243 -69 -24 -181 -64 -250 -89 -69 -24
-168 -59 -220 -78 -242 -86 -365 -130 -495 -175 -209 -73 -266 -95 -259 -103
4 -3 15 -2 25 4 11 5 72 28 137 49 253 85 328 111 357 124 17 8 77 29 135 46
58 18 110 36 115 40 6 4 62 24 125 44 63 21 124 42 135 47 27 12 228 83 340
120 50 16 97 32 105 36 18 7 10 5 140 48 58 19 114 39 125 45 18 9 297 106
605 211 63 21 124 43 135 49 11 5 65 23 120 41 55 17 105 35 110 39 6 4 53 22
105 39 91 30 359 122 390 134 8 4 100 36 204 72 104 36 191 67 193 69 3 3 3
11 1 20 -3 13 -9 13 -53 -3z"/>
<path d="M11160 19719 c-30 -10 -64 -24 -75 -29 -11 -6 -78 -30 -150 -53 -71
-24 -236 -81 -365 -127 -385 -136 -479 -169 -595 -206 -60 -20 -114 -40 -120
-44 -5 -4 -53 -22 -105 -39 -89 -29 -163 -55 -510 -176 -74 -26 -180 -62 -235
-81 -55 -19 -113 -40 -130 -48 -16 -7 -77 -28 -135 -46 -58 -18 -112 -37 -120
-42 -8 -5 -60 -24 -115 -42 -55 -18 -212 -73 -350 -121 -137 -49 -302 -105
-365 -126 -63 -21 -124 -43 -135 -48 -11 -6 -67 -27 -125 -46 -58 -20 -163
-57 -235 -82 -71 -25 -186 -65 -255 -89 -69 -23 -152 -52 -184 -63 -33 -12
-64 -20 -70 -19 -6 0 -24 -4 -39 -10 -36 -15 -47 -15 -47 0 0 9 -3 9 -11 1 -8
-8 -6 -19 5 -39 16 -27 16 -27 11 -4 -5 19 6 12 49 -35 51 -55 744 -847 916
-1045 87 -101 558 -638 604 -690 17 -19 76 -87 131 -150 54 -63 131 -149 169
-191 39 -42 112 -125 161 -184 50 -60 115 -136 145 -170 30 -33 75 -85 100
-115 49 -59 52 -61 95 -110 17 -18 24 -30 18 -26 -11 6 -67 68 -262 291 -64
74 -190 215 -241 270 -30 34 -77 88 -105 120 -27 33 -72 85 -100 115 -27 31
-77 87 -110 125 -33 38 -65 73 -70 79 -9 10 -210 239 -365 416 -31 36 -132
151 -224 255 -92 105 -189 215 -215 245 -69 79 -213 243 -286 325 -34 39 -83
95 -110 125 -115 132 -172 197 -201 229 -30 33 -31 34 -70 21 -51 -16 -64 -27
-63 -54 0 -20 -41 -432 -60 -601 -12 -103 -45 -431 -71 -705 -12 -118 -25
-247 -31 -286 -5 -39 -23 -205 -39 -368 -15 -164 -31 -301 -35 -304 -6 -6 -1
88 10 188 2 19 6 58 9 85 3 28 15 145 26 260 12 116 30 300 41 410 12 110 23
220 25 245 24 263 74 765 79 800 4 25 8 59 10 75 1 17 7 71 13 122 6 50 8 100
5 111 -2 11 0 29 6 40 28 52 -32 17 -259 -153 -135 -101 -263 -196 -285 -213
-74 -55 -559 -415 -750 -557 -104 -78 -251 -186 -325 -241 -74 -56 -268 -200
-430 -320 -162 -121 -340 -253 -395 -294 -55 -41 -113 -86 -130 -102 -16 -15
-37 -28 -45 -28 -15 0 -236 79 -415 148 -49 19 -110 36 -135 37 -25 2 -89 17
-142 33 -158 50 -202 62 -194 55 8 -9 64 -31 211 -84 156 -56 279 -103 440
-166 156 -62 319 -122 351 -130 15 -3 32 -28 57 -81 81 -175 97 -211 97 -217
0 -3 23 -55 50 -116 59 -129 92 -209 85 -209 -7 0 -65 120 -65 133 0 6 -6 18
-13 26 -8 9 -21 34 -29 56 -9 22 -36 83 -60 135 -25 52 -53 119 -63 147 -28
79 -58 105 -155 137 -47 16 -103 36 -125 46 -58 25 -257 95 -345 120 -41 12
-81 27 -89 34 -8 6 -17 11 -20 10 -3 0 -20 5 -38 13 -18 7 -37 13 -43 13 -6 0
-18 5 -28 10 -18 11 -173 70 -252 96 -25 9 -54 19 -65 24 -28 12 -177 65 -250
89 -32 11 -64 17 -69 13 -13 -7 -45 -7 -66 1 -41 15 -89 16 -126 2 -38 -15
-38 -15 -6 -10 29 4 31 3 18 -10 -11 -12 -21 -13 -42 -5 -26 10 -27 11 -8 24
10 8 26 16 34 19 17 5 -25 0 -73 -9 -17 -4 -29 -4 -26 0 4 4 17 9 29 11 52 10
30 17 -37 12 -59 -5 -76 -3 -89 10 -13 14 -19 14 -37 4 -17 -11 -21 -11 -29 3
-11 20 -28 21 -28 1 0 -8 -4 -15 -10 -15 -5 0 -10 4 -10 9 0 5 -10 11 -22 13
-13 2 -22 8 -21 14 1 7 -15 9 -48 6 -32 -3 -49 -1 -49 7 0 6 -9 11 -20 11 -11
0 -20 4 -20 9 0 5 -12 8 -27 6 -16 -1 -37 5 -47 14 -11 9 -16 10 -12 4 8 -15
-3 -17 -24 -3 -9 6 -17 5 -23 -3 -5 -7 -6 -2 -2 13 6 23 5 24 -9 7 -9 -12 -16
-15 -21 -7 -4 6 -14 10 -23 9 -32 -3 -43 1 -36 12 4 6 -1 9 -13 7 -11 -2 -27
3 -37 11 -9 8 -24 14 -34 15 -30 3 -96 36 -124 63 -14 14 -31 22 -37 19 -6 -4
-11 0 -11 8 0 8 -4 17 -9 20 -5 4 -7 -4 -3 -16 5 -20 1 -18 -26 10 -17 19 -36
31 -41 28 -5 -4 -11 2 -14 11 -4 17 -4 17 -11 1 -8 -18 0 -29 129 -168 74 -79
96 -108 76 -95 -10 5 -12 4 -7 -3 4 -7 17 -12 29 -12 12 0 47 -12 77 -26 30
-14 98 -43 150 -64 52 -21 217 -89 365 -150 149 -62 356 -147 460 -190 105
-43 238 -99 297 -124 59 -25 111 -46 114 -46 4 0 25 -9 48 -20 36 -17 269
-113 550 -227 l88 -36 105 -216 c58 -119 124 -256 148 -306 23 -49 85 -178
138 -285 88 -180 129 -268 131 -280 1 -3 6 -12 11 -20 21 -31 43 -85 39 -92
-6 -10 -25 0 -134 67 -47 29 -224 136 -395 237 -170 102 -382 230 -470 283
-88 54 -213 130 -277 169 -65 39 -148 90 -185 113 -172 106 -247 142 -197 94
24 -23 195 -201 298 -312 44 -46 116 -122 160 -169 45 -47 115 -122 156 -166
41 -44 134 -143 206 -219 72 -77 143 -153 158 -170 15 -16 64 -68 109 -115
216 -225 372 -394 376 -404 2 -6 -20 14 -50 45 -104 107 -390 407 -407 427
-10 11 -99 105 -197 208 -99 104 -223 234 -275 289 -52 55 -134 140 -181 190
-180 190 -265 279 -297 314 -104 112 -161 167 -197 190 -51 33 -280 172 -415
252 -58 34 -139 83 -180 109 -163 102 -376 232 -535 328 -191 114 -931 566
-1010 617 -27 18 -64 40 -82 49 -17 9 -35 21 -39 28 -4 6 8 2 27 -9 19 -12
126 -76 239 -143 113 -67 232 -139 265 -159 33 -21 139 -84 235 -141 96 -57
191 -113 210 -126 19 -12 184 -111 365 -220 182 -109 400 -241 485 -293 85
-52 178 -108 205 -123 28 -16 75 -45 105 -63 30 -19 56 -32 59 -30 2 3 -27 38
-66 77 -90 93 -262 274 -297 313 -16 17 -60 64 -99 105 -154 162 -346 367
-373 398 -16 17 -32 32 -37 32 -4 0 -40 15 -80 34 -40 18 -83 37 -97 41 -14 4
-81 32 -150 62 -69 30 -181 77 -250 105 -69 27 -129 53 -135 58 -5 4 -35 16
-65 28 -103 38 -322 134 -317 139 4 4 530 -211 577 -236 19 -10 47 -21 63 -25
15 -4 53 -18 84 -32 31 -15 84 -37 117 -50 34 -12 98 -39 143 -58 46 -19 83
-32 83 -28 0 11 -314 322 -325 322 -5 0 -17 7 -27 17 -14 12 -18 13 -18 2 0
-8 -6 -4 -16 9 -8 12 -26 22 -39 22 -13 0 -27 5 -30 10 -4 6 -10 8 -15 5 -4
-3 -13 2 -20 10 -7 8 -21 15 -31 15 -10 0 -20 4 -23 9 -3 5 -18 12 -33 16 -15
3 -39 15 -55 26 -15 11 -28 18 -28 14 0 -3 -16 6 -35 21 -19 14 -35 23 -35 18
0 -5 -7 2 -16 14 -8 12 -20 22 -25 22 -12 0 6 -37 35 -69 20 -23 20 -23 1 -13
-11 5 -29 20 -40 32 -11 12 -46 43 -78 67 -45 35 -68 46 -98 47 -21 0 -39 5
-39 10 0 4 -8 5 -17 2 -10 -4 -14 -4 -11 0 16 15 -62 60 -87 50 -9 -3 -14 -2
-11 3 3 5 -7 14 -23 19 -22 8 -31 7 -35 -1 -2 -7 -5 -4 -5 6 -1 10 -5 16 -10
12 -5 -3 -12 -1 -16 5 -4 6 -11 8 -16 5 -5 -4 -9 -1 -9 4 0 6 -5 11 -11 11 -5
0 -34 11 -63 25 -29 14 -67 28 -84 31 -18 4 -32 10 -32 15 0 5 -7 6 -15 3 -8
-4 -15 -2 -15 4 0 5 -10 13 -22 17 -13 4 -25 8 -28 9 -3 2 -18 6 -35 11 -16 4
-33 13 -37 18 -3 6 -19 12 -35 15 -15 2 -31 9 -35 15 -4 7 -8 -274 -7 -623 l0
-635 124 -90 c69 -49 142 -102 162 -117 21 -15 104 -76 185 -135 81 -59 222
-162 313 -228 229 -166 418 -303 431 -314 6 -5 42 -31 80 -58 84 -60 532 -386
629 -458 39 -28 156 -114 260 -190 105 -76 213 -154 240 -175 28 -20 75 -54
105 -76 74 -55 348 -256 435 -319 39 -29 144 -105 233 -171 90 -65 219 -159
287 -209 67 -49 133 -98 146 -107 97 -71 253 -186 299 -219 30 -22 89 -65 130
-96 41 -30 86 -63 100 -73 14 -10 72 -53 130 -95 58 -42 110 -81 115 -87 16
-17 -129 83 -250 172 -60 45 -137 100 -170 123 -33 22 -118 84 -190 137 -71
53 -143 104 -158 114 -16 9 -36 24 -45 31 -19 15 -64 48 -287 210 -82 60 -197
143 -255 185 -214 156 -585 425 -606 440 -24 17 -109 79 -699 509 -220 160
-461 336 -535 390 -74 54 -247 180 -385 281 -137 101 -288 211 -334 244 -46
34 -106 78 -135 99 -28 20 -76 55 -106 77 -30 21 -98 71 -150 109 l-95 70 -3
-2180 -2 -2180 127 -247 c69 -136 133 -258 142 -272 29 -44 52 -101 45 -112
-5 -7 -2 -8 6 -3 9 6 10 2 5 -15 -5 -15 -4 -20 4 -16 6 4 11 1 11 -7 0 -7 14
-42 30 -76 17 -35 29 -65 27 -68 -5 -4 -42 58 -139 237 -20 36 -86 155 -147
265 l-111 200 0 -144 c0 -120 3 -147 17 -163 9 -10 11 -18 5 -18 -6 0 -13 6
-15 13 -3 6 -6 -1526 -6 -3405 -1 -1880 3 -3418 7 -3418 5 0 26 15 46 33 l38
32 24 275 c13 151 26 286 29 300 3 14 21 221 40 460 20 239 38 442 40 450 3 8
21 202 40 430 19 228 39 453 45 500 6 47 27 265 46 485 49 535 71 757 73 717
1 -32 -50 -666 -68 -847 -5 -49 -28 -301 -50 -560 -22 -258 -45 -504 -50 -545
-6 -41 -22 -217 -36 -390 -13 -173 -29 -346 -35 -385 -6 -38 -26 -254 -45
-480 l-35 -410 -33 -31 c-17 -17 -42 -36 -55 -43 -21 -11 -22 -17 -22 -136 0
-69 2 -125 4 -125 3 0 33 29 68 63 328 330 1503 1514 1685 1698 l232 234 -30
100 c-30 100 -67 224 -152 510 -25 83 -66 218 -91 300 -25 83 -58 191 -72 240
-14 50 -43 146 -64 215 -36 116 -70 231 -76 255 -1 6 -13 44 -27 85 -13 41
-27 91 -31 110 -9 52 29 -50 71 -190 66 -221 85 -285 99 -335 7 -27 18 -59 23
-70 10 -19 52 -159 125 -417 19 -64 37 -121 40 -127 6 -9 37 -114 122 -406 19
-66 39 -129 45 -140 20 -42 38 -128 29 -144 -5 -9 -457 -464 -1005 -1011
l-995 -995 0 -2109 c0 -1160 2 -2107 5 -2105 2 2 88 87 191 189 103 102 179
174 170 160 -9 -14 -95 -104 -191 -200 -171 -170 -175 -175 -175 -216 l0 -42
372 381 c205 210 422 434 483 497 60 63 164 170 230 237 66 68 235 240 375
385 140 144 390 399 556 567 541 552 603 615 598 620 -2 2 -237 -229 -522
-514 -284 -285 -520 -518 -525 -517 -4 1 -7 -2 -7 -7 0 -12 -222 -232 -228
-226 -2 2 20 28 49 58 30 30 477 482 995 1003 518 522 990 1000 1050 1063 60
63 134 140 164 172 30 31 84 89 120 128 36 39 98 105 137 145 40 41 73 79 73
84 0 5 12 20 28 34 15 15 48 49 75 77 26 28 52 51 57 51 9 0 14 14 11 32 0 5
3 7 7 5 11 -3 102 88 102 102 0 6 4 11 8 11 14 0 92 64 92 75 0 5 -4 3 -10 -5
-5 -8 -11 -12 -14 -9 -3 3 6 16 21 30 14 13 23 18 18 10 -6 -10 -4 -12 4 -7 7
5 10 14 7 22 -3 9 0 11 11 7 11 -4 14 -2 9 5 -4 7 3 16 18 23 13 6 27 22 30
35 4 13 11 24 17 24 7 0 6 -6 -2 -18 -13 -15 -12 -16 3 -3 10 7 15 17 13 22
-7 11 55 80 66 73 5 -3 6 2 3 11 -5 11 2 19 25 28 17 6 31 17 31 24 0 6 5 15
12 19 8 5 9 2 4 -11 -5 -15 -4 -16 9 -5 8 7 12 17 9 22 -4 6 2 7 16 3 20 -6
22 -4 17 13 -5 22 14 47 27 35 4 -4 4 1 0 12 -4 11 -4 17 0 14 4 -4 19 4 33
17 27 25 60 33 47 11 -4 -6 2 -3 14 7 26 23 28 28 5 19 -11 -4 -14 -3 -9 5 4
7 13 12 19 12 7 0 26 12 42 26 21 17 23 22 8 15 -27 -14 -43 -14 -43 -1 0 6 9
10 19 10 27 0 51 10 51 22 0 5 -9 6 -20 3 -18 -6 -18 -4 5 20 19 21 30 26 50
21 23 -6 70 38 495 464 259 259 474 469 479 466 11 -7 33 18 24 28 -4 3 6 20
22 36 29 30 52 41 39 17 -4 -6 5 -1 19 12 28 26 38 42 12 21 -29 -24 -15 6 18
38 40 39 53 41 30 5 -18 -30 -12 -25 27 22 16 19 18 24 6 15 -13 -10 -18 -11
-15 -3 4 11 521 535 572 580 l21 18 -20 -27 c-10 -15 -22 -28 -26 -28 -5 0 -8
-5 -8 -10 0 -7 8 -7 23 1 24 12 -23 -38 -314 -336 -107 -110 -233 -240 -279
-290 -46 -49 -146 -153 -222 -229 -76 -76 -135 -143 -131 -149 3 -6 1 -7 -6
-3 -6 4 -18 2 -26 -4 -21 -18 -19 -35 3 -19 15 12 15 11 -1 -8 -11 -12 -25
-19 -34 -16 -10 4 -14 0 -11 -13 2 -14 -2 -18 -16 -16 -13 3 -17 -1 -13 -12 4
-9 3 -15 -1 -15 -20 3 -33 -2 -31 -13 4 -30 -2 -40 -18 -34 -12 5 -36 -13 -87
-66 -38 -40 -71 -79 -72 -87 -5 -25 7 -33 21 -14 13 17 14 17 12 -4 0 -12 -4
-20 -7 -18 -3 2 -19 -9 -34 -26 -31 -32 -43 -36 -43 -14 0 8 13 20 28 27 21 9
25 16 17 25 -12 15 -73 -30 -115 -86 -15 -20 -20 -30 -11 -23 14 11 17 9 23
-19 6 -27 3 -35 -16 -50 -13 -10 -30 -19 -38 -19 -7 0 -11 -6 -7 -15 3 -8 1
-15 -4 -15 -6 0 -10 -7 -10 -16 0 -10 -6 -14 -14 -11 -10 4 -13 1 -10 -7 3 -7
-2 -20 -10 -29 -9 -9 -16 -20 -16 -25 0 -6 -9 -8 -20 -5 -15 4 -20 0 -20 -17
0 -26 -26 -54 -41 -44 -7 4 -9 0 -5 -12 4 -13 -2 -25 -19 -38 -14 -10 -25 -22
-25 -27 0 -17 -74 -89 -80 -78 -4 6 -10 -2 -13 -18 -8 -35 -142 -181 -150
-161 -4 8 -6 6 -6 -6 -1 -20 -61 -77 -73 -70 -4 3 -5 -3 -1 -13 3 -10 3 -15
-2 -11 -8 8 -35 -15 -35 -30 0 -13 -108 -108 -120 -105 -5 2 -6 -5 -3 -14 4
-9 2 -14 -4 -10 -10 6 -43 -26 -43 -43 0 -6 -5 -10 -11 -10 -6 0 -28 -17 -48
-37 -38 -40 -70 -69 -214 -196 -48 -43 -108 -98 -134 -122 -26 -25 -50 -45
-55 -45 -4 0 -8 -7 -8 -15 0 -8 -4 -15 -8 -15 -9 0 -55 -43 -223 -203 -84 -81
-265 -250 -324 -303 -50 -45 -366 -339 -450 -419 -29 -27 -112 -106 -185 -175
-125 -118 -657 -650 -701 -701 -23 -28 -280 -288 -974 -989 -878 -887 -1077
-1095 -1054 -1098 12 -2 26 1 32 7 6 6 18 11 26 11 14 0 14 -1 1 -10 -10 -6
1015 -10 2909 -10 l2924 0 31 24 c17 13 94 66 171 118 77 52 194 132 260 177
66 46 176 120 245 167 69 46 143 97 165 112 22 15 117 80 210 143 94 64 242
165 330 225 88 59 225 152 305 206 80 54 170 115 200 136 30 20 192 130 360
243 168 114 366 248 440 298 74 51 190 129 257 174 68 45 123 86 123 90 0 5
-12 0 -28 -10 -37 -24 -117 -73 -210 -128 -81 -47 -525 -313 -552 -330 -19
-12 -91 -55 -160 -95 -69 -41 -237 -141 -375 -223 -137 -82 -308 -184 -380
-226 -71 -43 -263 -156 -425 -253 -162 -96 -407 -242 -545 -323 -137 -81 -356
-211 -485 -288 -316 -187 -306 -182 -295 -169 10 11 823 502 831 502 3 0 10 5
17 10 7 6 59 38 117 72 58 34 148 88 200 119 52 32 158 95 235 140 77 46 151
90 165 100 14 9 104 63 200 119 96 57 202 120 235 140 33 20 98 60 145 87 47
28 108 64 135 80 132 80 701 420 767 459 29 17 90 53 135 80 45 27 124 73 175
103 279 163 471 283 718 449 151 101 281 190 289 198 16 15 17 14 -174 244
-60 73 -123 149 -140 170 -61 77 -249 305 -255 310 -4 3 -56 66 -115 140 -60
74 -111 137 -115 140 -17 15 -81 100 -75 100 4 0 13 -6 19 -14 27 -33 433
-524 452 -546 12 -14 70 -83 129 -155 279 -339 296 -360 316 -367 11 -4 81
-51 157 -104 75 -54 164 -116 197 -139 75 -52 404 -285 673 -476 111 -79 211
-150 222 -158 20 -13 20 -9 20 495 l0 509 -38 40 c-71 77 -358 391 -451 495
-52 58 -122 135 -155 171 -96 103 -239 259 -287 313 -24 27 -59 64 -76 82 -18
18 -33 36 -33 40 0 4 -8 13 -17 20 -10 7 -13 14 -6 14 6 0 21 -12 33 -27 26
-33 165 -186 201 -222 15 -14 68 -73 120 -131 51 -58 123 -136 159 -175 37
-38 93 -99 126 -135 32 -35 80 -87 105 -115 115 -126 294 -321 306 -333 11
-11 13 112 13 685 l0 698 -25 29 c-14 16 -25 26 -25 23 0 -4 -9 2 -20 13 -11
11 -24 20 -29 20 -5 0 -12 8 -16 18 -3 9 -42 44 -86 77 -83 63 -192 149 -269
215 -96 81 -128 106 -182 144 -31 21 -59 45 -62 52 -3 8 -12 14 -20 14 -8 0
-18 9 -21 20 -3 11 -13 20 -20 20 -17 0 -71 49 -68 61 2 4 -3 6 -10 4 -11 -5
-45 22 -197 154 -68 59 -232 205 -280 248 -19 18 -38 33 -41 33 -3 0 -26 19
-51 43 -80 77 -230 212 -252 227 -11 8 -35 29 -51 45 -17 17 -113 104 -215
195 -206 185 -299 268 -350 316 -118 110 -163 154 -155 154 4 0 29 -19 54 -42
26 -24 73 -65 106 -93 32 -27 66 -57 74 -65 9 -9 37 -32 62 -52 66 -52 98 -80
126 -106 14 -13 28 -21 31 -17 3 3 -12 21 -33 40 -22 19 -52 46 -66 60 -14 14
-31 25 -38 25 -8 0 -11 6 -7 16 3 8 2 13 -2 10 -4 -2 -18 9 -31 25 -13 16 -29
29 -37 29 -8 0 -14 7 -14 15 0 9 -11 20 -25 27 -13 6 -22 15 -19 19 3 5 -2 9
-10 9 -9 0 -15 6 -13 13 1 6 -4 11 -10 10 -7 -2 -13 1 -13 6 0 12 -52 66 -62
64 -4 -2 -5 4 -2 12 4 10 2 13 -7 10 -9 -3 -19 6 -27 25 -8 16 -20 30 -28 30
-8 0 -14 6 -12 13 4 16 -40 72 -49 64 -3 -4 7 -18 23 -32 16 -14 24 -25 18
-25 -6 0 -55 48 -110 106 -54 58 -101 108 -104 110 -2 3 2 9 10 15 13 8 12 11
-4 24 -10 8 -40 35 -67 60 -27 26 -49 42 -49 36 0 -6 -5 -11 -10 -11 -6 0 -10
6 -9 13 3 26 -2 37 -17 37 -9 0 -12 5 -8 12 5 7 2 9 -9 5 -11 -4 -14 -2 -11 8
6 15 -23 34 -44 29 -7 -1 -8 0 -2 3 18 9 11 25 -9 18 -12 -3 -21 0 -25 10 -4
11 -2 14 7 9 14 -9 -34 44 -114 125 -67 67 -221 208 -304 276 -33 28 -67 56
-75 64 -8 8 -57 50 -108 94 -51 44 -91 81 -89 84 3 2 40 -22 83 -54 43 -32 82
-57 86 -55 4 1 8 -2 8 -8 0 -5 37 -37 83 -72 80 -61 292 -233 360 -293 7 -6
41 -33 77 -60 35 -28 77 -63 92 -78 16 -16 33 -25 40 -21 7 4 8 3 4 -4 -4 -7
-2 -12 3 -12 6 0 26 -15 45 -32 33 -33 83 -74 246 -204 47 -37 101 -81 121
-98 20 -17 49 -40 64 -51 15 -11 36 -29 48 -40 46 -43 131 -109 122 -96 -5 10
-4 12 3 7 7 -4 12 -14 12 -22 0 -9 5 -14 12 -12 6 2 21 -5 33 -16 12 -12 45
-42 73 -68 28 -27 55 -48 60 -48 6 0 12 -7 16 -15 3 -8 11 -15 18 -15 7 0 50
-35 94 -77 45 -43 93 -87 107 -98 14 -11 45 -38 69 -60 23 -22 74 -67 113
-100 38 -33 96 -86 128 -117 32 -32 63 -58 70 -58 8 0 8 -3 -1 -9 -11 -6 -10
-10 5 -16 10 -5 25 -7 33 -6 12 1 12 0 2 -7 -11 -7 -4 -18 28 -48 24 -22 69
-65 101 -96 32 -32 63 -58 68 -58 6 0 11 -7 11 -15 0 -8 4 -14 9 -12 6 1 43
-33 84 -75 41 -43 81 -78 89 -78 8 0 26 -15 39 -34 14 -19 51 -56 84 -83 33
-26 87 -78 120 -115 33 -36 63 -67 66 -67 8 -1 176 -161 397 -378 91 -90 169
-163 174 -163 4 0 8 371 8 823 0 811 0 824 -20 842 -11 10 -20 23 -20 29 0 6
7 3 14 -6 7 -10 16 -18 20 -18 3 0 5 550 4 1223 l-3 1222 -32 16 c-17 9 -44
24 -59 34 -28 18 -350 214 -563 342 -67 40 -135 82 -150 92 -14 10 -74 47
-134 82 -59 35 -118 71 -131 79 -13 8 -44 27 -68 41 -62 37 -147 89 -188 115
-42 26 -507 309 -670 407 -127 77 -143 88 -136 95 3 3 34 -13 68 -35 35 -22
198 -120 363 -218 165 -98 319 -190 342 -204 23 -14 68 -42 100 -62 63 -39
420 -253 548 -328 149 -88 349 -208 533 -319 l182 -111 -2 1752 -3 1752 -185
1 c-102 0 -195 -3 -206 -7 -13 -4 -26 -3 -33 4 -6 6 -11 7 -11 1 0 -5 -77 -10
-188 -10 -103 -1 -236 -5 -297 -8 -184 -10 -303 -16 -460 -21 -82 -3 -181 -8
-220 -10 -38 -3 -113 -7 -165 -10 -137 -7 -277 -16 -335 -20 -138 -10 -514
-27 -545 -24 -20 2 31 12 115 22 83 11 209 27 280 37 72 10 158 21 192 25 35
3 68 8 75 10 7 3 177 23 378 45 201 22 442 49 535 60 303 36 329 39 339 33 5
-4 7 1 2 12 -5 15 -4 16 9 5 13 -11 18 -11 28 0 9 9 9 11 0 6 -6 -3 -15 -1
-19 5 -4 8 -3 9 4 5 7 -4 12 -1 12 6 1 7 7 2 15 -12 11 -19 14 -21 15 -7 0 9
5 17 11 17 5 0 7 -4 4 -10 -4 -6 10 -9 37 -9 l43 2 -35 6 c-29 6 -19 9 60 19
52 6 123 15 158 18 34 4 62 9 62 13 0 3 30 4 66 3 40 -2 64 0 60 6 -3 5 7 10
22 10 15 1 47 3 72 5 25 3 60 5 78 6 l32 1 0 1279 0 1279 -47 -15 c-27 -9
-106 -32 -178 -53 -71 -21 -200 -58 -285 -83 -85 -25 -195 -58 -245 -72 -154
-45 -397 -122 -455 -144 -43 -17 -48 -20 -23 -18 27 3 30 1 21 -10 -6 -8 -20
-12 -30 -10 -10 3 -18 1 -18 -3 0 -5 -8 -11 -17 -13 -14 -4 -12 -5 5 -6 12 0
22 -6 22 -11 0 -6 -12 -9 -27 -8 -24 3 -28 -1 -31 -24 -2 -16 -9 -28 -17 -28
-8 0 -33 -18 -56 -40 -23 -22 -45 -40 -49 -40 -4 0 -13 -7 -20 -15 -7 -9 -19
-14 -25 -11 -8 3 -11 -3 -9 -17 2 -12 2 -17 -1 -11 -3 6 -23 -6 -47 -28 -23
-21 -47 -38 -54 -38 -7 0 -22 -14 -34 -30 -12 -17 -25 -28 -30 -25 -4 3 -10
-2 -14 -10 -3 -8 -10 -15 -16 -15 -6 0 -27 -17 -45 -37 -19 -21 -35 -32 -35
-25 0 6 -5 12 -11 12 -6 0 -9 -6 -7 -12 5 -14 -52 -63 -83 -73 -10 -4 -19 -11
-19 -16 0 -5 -11 -14 -25 -19 -14 -5 -28 -17 -31 -25 -4 -8 -12 -15 -20 -15
-8 0 -14 -4 -14 -8 0 -5 -12 -15 -27 -23 -16 -7 -41 -29 -57 -46 -16 -18 -35
-33 -42 -33 -8 0 -14 -5 -14 -10 0 -6 -12 -15 -26 -20 -15 -6 -22 -15 -18 -21
5 -9 -1 -10 -20 -5 -19 5 -28 2 -32 -8 -3 -8 -12 -12 -20 -9 -12 4 -19 -12
-16 -38 1 -4 -7 -5 -18 -2 -20 5 -50 -17 -50 -36 0 -15 -13 -14 -29 2 -11 10
-13 9 -8 -5 5 -13 1 -18 -13 -18 -12 0 -20 -7 -20 -17 0 -14 -2 -15 -9 -5 -7
12 -12 12 -30 1 -11 -8 -21 -19 -21 -26 0 -7 -7 -10 -17 -6 -13 5 -15 2 -10
-11 5 -14 3 -16 -12 -11 -12 3 -21 0 -25 -10 -3 -8 -16 -15 -29 -15 -24 0 -71
-36 -63 -48 3 -4 -4 -9 -15 -10 -10 -1 -27 -3 -38 -4 -12 -2 -16 -8 -13 -20 3
-14 0 -17 -13 -11 -13 4 -16 3 -11 -5 4 -8 2 -10 -7 -6 -8 3 -43 -12 -78 -33
-35 -21 -67 -36 -71 -35 -5 1 -7 -4 -5 -11 1 -7 -6 -11 -17 -9 -12 2 -16 -1
-10 -9 5 -8 3 -10 -6 -4 -7 4 -15 3 -19 -2 -11 -16 -75 -57 -94 -60 -10 -2
-27 -12 -39 -23 -12 -11 -30 -22 -40 -26 -10 -3 -16 -9 -13 -14 3 -5 -6 -7
-20 -4 -14 2 -25 0 -25 -6 0 -6 -10 -15 -22 -20 -27 -12 -61 -32 -68 -41 -9
-11 -84 -49 -97 -49 -7 0 -13 -4 -13 -8 0 -5 -17 -17 -37 -28 -21 -10 -43 -24
-50 -30 -7 -7 -33 -22 -58 -34 -25 -12 -43 -26 -40 -31 4 -5 0 -6 -8 -3 -9 3
-21 -4 -29 -15 -8 -12 -17 -19 -20 -16 -3 3 -11 -1 -18 -10 -7 -8 -21 -15 -31
-15 -10 0 -25 -10 -33 -22 -9 -12 -16 -18 -16 -13 0 6 -7 1 -15 -9 -8 -11 -15
-17 -15 -13 0 9 -75 -38 -108 -67 -12 -11 -30 -21 -39 -22 -9 -2 -20 -10 -25
-18 -5 -9 -16 -16 -23 -16 -8 0 -15 -4 -15 -10 0 -5 -7 -10 -15 -10 -8 0 -15
-5 -15 -11 0 -5 -4 -8 -8 -5 -5 3 -24 -8 -43 -24 -19 -16 -40 -29 -47 -30 -13
0 -93 -47 -102 -60 -7 -9 -90 -59 -112 -66 -10 -4 -18 -10 -18 -15 0 -5 -4 -9
-10 -9 -5 0 -48 -27 -95 -60 -47 -33 -88 -60 -91 -60 -6 0 -66 -42 -74 -51
-10 -12 -159 -99 -169 -99 -6 0 -11 -4 -11 -9 0 -5 -9 -12 -20 -16 -10 -3 -63
-32 -117 -65 -54 -32 -100 -56 -103 -54 -2 3 1 8 7 12 11 7 15 10 175 132 54
41 141 107 194 145 53 39 106 80 119 93 13 12 27 22 31 22 8 0 99 74 172 140
12 11 25 20 28 20 7 0 94 64 117 87 10 10 22 18 27 18 5 0 15 7 22 16 7 9 35
31 62 49 28 19 64 49 82 67 18 18 35 33 39 33 12 0 138 94 164 123 14 15 31
27 37 27 7 0 15 7 18 16 4 9 9 14 12 11 3 -3 28 17 56 44 27 26 58 51 67 54
10 3 30 19 45 36 20 22 33 28 49 24 16 -5 18 -4 8 3 -11 8 -8 14 15 28 16 10
35 24 42 31 7 7 20 13 28 13 8 0 17 7 21 16 3 8 16 20 29 25 13 5 23 14 22 21
-2 7 3 12 10 13 8 0 19 8 26 18 7 9 18 17 25 17 6 0 14 7 17 15 4 8 11 15 18
15 6 0 31 18 56 40 25 22 48 40 52 40 4 0 21 13 39 30 18 16 52 42 76 57 24
15 43 30 43 35 0 4 16 15 35 24 19 9 32 20 29 25 -3 5 4 9 15 9 12 0 21 5 21
10 0 6 11 15 25 20 14 5 25 14 25 18 0 5 19 22 43 38 23 16 44 32 45 37 2 4
11 7 20 7 8 0 12 3 9 6 -7 8 36 44 52 44 6 0 16 9 23 21 7 11 30 30 52 41 21
11 56 38 77 60 21 22 43 37 48 33 6 -3 11 -1 11 4 0 6 6 11 13 11 6 0 34 20
62 45 27 24 53 41 57 39 5 -3 5 -10 2 -16 -4 -7 -2 -8 5 -4 6 4 9 12 6 17 -4
5 -3 14 1 20 5 8 9 8 14 -1 6 -9 10 -7 14 8 4 12 13 19 20 16 7 -3 16 2 20 11
3 9 10 14 14 11 5 -3 27 10 48 29 21 19 44 35 50 35 20 0 64 25 64 36 0 7 17
19 38 27 21 8 44 22 51 31 7 9 17 13 22 10 5 -3 9 0 9 5 0 6 9 11 20 11 11 0
20 4 20 9 0 5 14 14 30 21 17 7 30 17 30 22 0 5 14 14 30 19 17 6 30 14 30 18
0 3 15 13 33 20 17 8 38 23 46 33 7 11 19 17 27 14 8 -3 14 0 14 7 0 15 77 50
91 42 23 -15 0 32 -45 90 -17 22 -33 42 -36 45 -3 3 -14 16 -24 30 -11 14 17
-12 62 -57 45 -46 86 -83 91 -83 6 0 18 11 27 25 9 14 22 25 28 24 18 -3 46
12 40 22 -3 5 4 9 15 9 11 0 26 7 35 15 8 8 17 15 21 15 3 0 15 9 27 20 12 11
30 20 40 20 10 0 18 5 18 10 0 6 7 10 16 10 9 0 12 5 8 12 -4 7 -3 8 4 4 7 -4
34 13 64 41 150 138 256 218 158 118 -24 -25 -39 -45 -32 -45 7 0 12 3 12 8 1
4 30 25 66 47 36 22 97 63 136 90 39 28 78 55 87 60 8 6 35 22 58 38 23 15 45
27 48 27 4 0 29 16 55 35 26 19 51 35 54 35 4 0 12 5 19 11 7 6 62 42 122 81
61 39 140 91 177 117 38 25 77 51 88 57 11 6 29 19 40 29 20 18 20 31 20 2086
0 1966 -1 2069 -17 2068 -10 0 -43 -9 -73 -20z m-4530 -1736 c0 -29 -39 -446
-45 -473 -2 -14 -16 -151 -30 -305 -14 -154 -37 -383 -50 -510 -13 -126 -36
-354 -50 -505 -25 -265 -38 -388 -56 -515 -14 -108 0 106 31 460 35 388 39
432 45 465 3 14 18 183 35 375 16 193 35 388 41 435 14 107 55 550 52 550 -3
0 -163 -136 -413 -350 -52 -45 -144 -123 -205 -175 -60 -51 -162 -138 -225
-192 -64 -54 -219 -186 -345 -293 -125 -107 -278 -238 -340 -290 -61 -52 -133
-114 -160 -136 -81 -68 -329 -277 -341 -289 -12 -10 -9 -17 183 -565 36 -102
78 -223 93 -270 16 -47 45 -132 65 -188 20 -57 34 -106 32 -109 -5 -4 -10 11
-81 217 -20 58 -41 114 -46 125 -5 11 -38 101 -74 200 -35 99 -96 272 -136
384 l-73 203 43 37 c24 20 161 137 304 260 144 123 285 244 315 270 30 25 75
64 101 86 25 22 72 63 105 90 32 28 113 96 179 153 67 57 157 133 200 170 43
37 116 99 160 137 45 39 183 156 306 260 123 105 253 216 289 247 69 60 91 70
91 41z m1207 -759 c-3 -3 -12 -4 -19 -1 -8 3 -5 6 6 6 11 1 17 -2 13 -5z m70
-10 c-3 -3 -12 -4 -19 -1 -8 3 -5 6 6 6 11 1 17 -2 13 -5z m126 -21 c-7 -2
-19 -2 -25 0 -7 3 -2 5 12 5 14 0 19 -2 13 -5z m-7605 -88 c24 -10 41 -19 39
-22 -3 -2 -29 8 -58 22 -59 27 -50 28 19 0z m8085 8 c-7 -2 -19 -2 -25 0 -7 3
-2 5 12 5 14 0 19 -2 13 -5z m-7963 -60 l25 -14 -25 7 c-14 4 -36 13 -50 21
l-25 14 25 -7 c14 -4 36 -13 50 -21z m-304 -34 c3 -6 -5 -3 -20 6 -14 10 -26
19 -26 22 0 7 39 -17 46 -28z m89 -57 c-3 -3 -11 0 -18 7 -9 10 -8 11 6 5 10
-3 15 -9 12 -12z m2290 -488 c11 -8 14 -14 8 -14 -7 0 -15 5 -18 10 -3 6 -15
10 -25 10 -10 0 -22 5 -26 11 -8 14 32 2 61 -17z m82 -36 c-3 -8 -6 -5 -6 6
-1 11 2 17 5 13 3 -3 4 -12 1 -19z m121 14 c-10 -2 -18 -9 -18 -15 0 -9 -2 -9
-8 -1 -4 7 -16 14 -27 16 -11 3 0 5 25 5 25 0 37 -2 28 -5z m135 -69 c-7 -2
-19 -2 -25 0 -7 3 -2 5 12 5 14 0 19 -2 13 -5z m1214 -525 c-3 -8 -6 -5 -6 6
-1 11 2 17 5 13 3 -3 4 -12 1 -19z m2253 -202 c-7 -7 -10 1 -9 25 0 32 1 33
10 10 6 -16 6 -28 -1 -35z m-6 -78 c-5 -76 -14 -90 -14 -20 0 44 7 82 15 82 1
0 1 -28 -1 -62z m4459 7 c-3 -9 -8 -14 -10 -11 -3 3 -2 9 2 15 9 16 15 13 8
-4z m-4503 -126 c-13 -143 -26 -178 -16 -44 8 110 17 177 23 172 2 -3 -1 -60
-7 -128z m4423 46 c-3 -9 -8 -14 -10 -11 -3 3 -2 9 2 15 9 16 15 13 8 -4z
m-4396 -67 c-2 -13 -4 -3 -4 22 0 25 2 35 4 23 2 -13 2 -33 0 -45z m4343 19
c0 -2 -10 -12 -22 -23 l-23 -19 19 23 c18 21 26 27 26 19z m-6246 -154 c43
-96 66 -153 91 -218 6 -14 5 -17 -3 -10 -5 6 -22 42 -37 80 -16 39 -33 73 -39
77 -6 4 -7 8 -3 8 4 0 -4 20 -18 45 -14 25 -25 52 -25 61 0 8 -7 26 -16 39 -9
14 -12 25 -7 25 6 0 31 -48 57 -107z m4666 34 c0 -4 -13 8 -30 26 -16 19 -30
38 -30 43 0 10 59 -58 60 -69z m1502 33 c-44 -42 -53 -38 -12 5 18 19 36 33
38 30 3 -3 -9 -18 -26 -35z m-4275 -47 c-3 -10 -5 -2 -5 17 0 19 2 27 5 18 2
-10 2 -26 0 -35z m2896 -122 c11 -14 -10 6 -47 44 -36 39 -65 74 -66 79 0 9
83 -81 113 -123z m1315 109 c-7 -11 -17 -20 -22 -20 -5 0 -1 9 9 20 10 11 20
20 22 20 2 0 -2 -9 -9 -20z m-4251 -47 c-3 -10 -5 -4 -5 12 0 17 2 24 5 18 2
-7 2 -21 0 -30z m30 -40 c-3 -10 -5 -2 -5 17 0 19 2 27 5 18 2 -10 2 -26 0
-35z m4173 44 c0 -2 -9 -12 -20 -22 -24 -21 -27 -14 -4 9 15 15 24 20 24 13z
m-50 -56 c0 -5 -7 -12 -16 -15 -14 -5 -15 -4 -4 9 14 17 20 19 20 6z m-1162
-71 c13 -16 21 -30 19 -30 -2 0 -16 14 -30 30 -15 17 -23 30 -19 30 5 0 18
-13 30 -30z m-2971 -27 c-3 -10 -5 -4 -5 12 0 17 2 24 5 18 2 -7 2 -21 0 -30z
m-1381 -125 c13 -39 22 -73 20 -75 -4 -4 -66 162 -66 175 1 15 23 -33 46 -100z
m1371 55 c-3 -10 -5 -2 -5 17 0 19 2 27 5 18 2 -10 2 -26 0 -35z m-1747 -18
c0 -5 -5 -3 -10 5 -5 8 -10 20 -10 25 0 6 5 3 10 -5 5 -8 10 -19 10 -25z m41
-81 c16 -37 27 -69 24 -72 -3 -3 -6 -3 -8 -1 -8 11 -55 139 -51 139 3 0 18
-30 35 -66z m4833 31 c15 -19 26 -35 24 -35 -2 0 -18 16 -37 35 -18 19 -28 35
-23 35 5 0 22 -16 36 -35z m126 -148 c-3 -2 -20 15 -39 37 l-35 41 39 -37 c22
-21 37 -39 35 -41z m-4915 12 c10 -30 2 -32 -12 -3 -6 13 -7 24 -3 24 5 0 12
-9 15 -21z m352 -41 c-3 -8 -6 -5 -6 6 -1 11 2 17 5 13 3 -3 4 -12 1 -19z
m-317 -37 c-1 -13 -3 -13 -15 3 -19 26 -19 42 0 26 8 -7 15 -20 15 -29z m6415
19 c3 -5 -4 -6 -15 -3 -11 3 -22 9 -25 13 -3 5 4 6 15 3 11 -3 22 -9 25 -13z
m-188 -38 c8 -5 -1 -8 -21 -8 -19 0 -32 4 -30 8 7 10 35 10 51 0z m-30 -28
c-3 -3 -12 -4 -19 -1 -8 3 -5 6 6 6 11 1 17 -2 13 -5z m-52 -14 c-3 -5 -14
-10 -23 -9 -14 0 -13 2 3 9 27 11 27 11 20 0z m-80 -17 c10 4 14 3 10 -4 -4
-6 -19 -7 -36 -4 -19 4 -29 3 -29 -5 0 -6 -5 -10 -11 -8 -6 2 -10 8 -10 13 0
14 45 24 52 12 4 -6 14 -7 24 -4z m-90 -23 c3 -5 -1 -10 -9 -10 -8 0 -18 5
-21 10 -3 6 1 10 9 10 8 0 18 -4 21 -10z m-45 -10 c0 -5 -10 -10 -22 -10 -19
0 -20 2 -8 10 19 13 30 13 30 0z m-45 -20 c3 -5 -1 -10 -9 -10 -8 0 -18 5 -21
10 -3 6 1 10 9 10 8 0 18 -4 21 -10z m-5806 -55 c0 -5 -6 1 -14 15 -8 14 -14
30 -14 35 0 6 6 -1 14 -15 8 -14 14 -29 14 -35z m5749 42 c-7 -8 -17 -14 -23
-14 -5 0 -50 -12 -98 -27 -49 -15 -91 -26 -93 -23 -2 2 24 12 58 22 35 10 68
21 73 24 6 3 18 7 29 8 10 2 26 8 35 13 23 14 34 12 19 -3z m-5720 -112 c-3
-3 -9 2 -12 12 -6 14 -5 15 5 6 7 -7 10 -15 7 -18z m-568 -660 l35 -40 -43 40
c-23 21 -42 44 -42 49 0 6 3 6 8 1 4 -6 23 -28 42 -50z m6880 15 c-8 -5 -19
-10 -25 -10 -5 0 -3 5 5 10 8 5 20 10 25 10 6 0 3 -5 -5 -10z m-6635 -270 c10
-11 16 -20 13 -20 -3 0 -13 9 -23 20 -10 11 -16 20 -13 20 3 0 13 -9 23 -20z
m4195 -34 c0 -2 -7 -7 -16 -10 -8 -3 -12 -2 -9 4 6 10 25 14 25 6z m-4269
-553 c13 -17 13 -17 -6 -3 -11 8 -22 16 -24 17 -2 2 0 3 6 3 6 0 17 -8 24 -17z
m115 -84 c3 -6 -5 -3 -20 6 -14 10 -26 19 -26 22 0 7 39 -17 46 -28z m174
-126 c0 -7 -39 17 -46 28 -3 6 5 3 20 -6 14 -10 26 -19 26 -22z m5730 -503 c8
-5 11 -10 5 -10 -5 0 -17 5 -25 10 -8 5 -10 10 -5 10 6 0 17 -5 25 -10z
m-4190 -208 c0 -4 -10 -13 -22 -21 -23 -14 -23 -14 -4 8 20 22 26 25 26 13z
m-6094 -814 l29 -33 -32 29 c-18 17 -33 31 -33 33 0 8 8 1 36 -29z m-105 -45
c13 -16 12 -17 -3 -4 -10 7 -18 15 -18 17 0 8 8 3 21 -13z m-30 -50 c13 -17
13 -17 -6 -3 -11 8 -22 16 -24 17 -2 2 0 3 6 3 6 0 17 -8 24 -17z m394 -192
c3 -5 1 -12 -4 -15 -5 -3 -11 1 -15 9 -6 16 9 21 19 6z m8470 -941 c3 -6 -1
-7 -9 -4 -18 7 -21 14 -7 14 6 0 13 -4 16 -10z m110 -70 c3 -6 -1 -7 -9 -4
-18 7 -21 14 -7 14 6 0 13 -4 16 -10z m50 -22 c14 -6 25 -15 25 -19 0 -11 -38
1 -51 17 -14 17 -8 18 26 2z m-5500 -1138 c3 -5 2 -10 -4 -10 -5 0 -13 5 -16
10 -3 6 -2 10 4 10 5 0 13 -4 16 -10z m-3105 -159 c0 -6 -4 -13 -10 -16 -5 -3
-10 1 -10 9 0 9 5 16 10 16 6 0 10 -4 10 -9z m2461 -8 c13 -17 13 -17 -6 -3
-11 8 -22 16 -24 17 -2 2 0 3 6 3 6 0 17 -8 24 -17z m919 -19 c0 -2 -9 0 -20
6 -11 6 -20 13 -20 16 0 2 9 0 20 -6 11 -6 20 -13 20 -16z m-830 -40 c0 -2 -9
0 -20 6 -11 6 -20 13 -20 16 0 2 9 0 20 -6 11 -6 20 -13 20 -16z m950 -41 c0
-7 -39 17 -46 28 -3 6 5 3 20 -6 14 -10 26 -19 26 -22z m-880 -10 c0 -7 -39
17 -46 28 -3 6 5 3 20 -6 14 -10 26 -19 26 -22z m-2639 -33 l-9 -45 -1 55 c-1
35 2 51 9 44 6 -6 6 -26 1 -54z m3689 -66 c0 -2 -9 0 -20 6 -11 6 -20 13 -20
16 0 2 9 0 20 -6 11 -6 20 -13 20 -16z m-3703 -71 c-2 -16 -4 -3 -4 27 0 30 2
43 4 28 2 -16 2 -40 0 -55z m2834 50 c13 -16 12 -17 -3 -4 -10 7 -18 15 -18
17 0 8 8 3 21 -13z m5900 -10 c13 -16 12 -17 -3 -4 -10 7 -18 15 -18 17 0 8 8
3 21 -13z m-5776 -71 c44 -30 87 -62 95 -70 8 -8 -30 16 -85 53 -55 37 -104
72 -110 78 -16 16 12 -1 100 -61z m-1966 -82 c1 -8 -6 -2 -14 14 -8 15 -15 38
-14 50 0 15 4 12 14 -14 7 -19 14 -42 14 -50z m2226 -95 c66 -45 191 -130 278
-189 87 -58 193 -130 235 -160 42 -29 163 -110 267 -181 105 -70 197 -134 205
-143 29 -29 13 -19 -400 263 -63 43 -185 126 -270 183 -85 58 -189 128 -230
157 -41 29 -110 75 -152 104 -43 29 -78 54 -78 57 0 7 8 2 145 -91z m-2218 53
c-3 -8 -6 -5 -6 6 -1 11 2 17 5 13 3 -3 4 -12 1 -19z m227 -68 c5 -17 4 -20
-2 -10 -5 8 -13 26 -16 40 -5 17 -4 20 2 10 5 -8 13 -26 16 -40z m7746 7 c11
-18 8 -17 -18 4 -17 13 -31 27 -31 32 -1 12 35 -14 49 -36z m74 -82 c26 -30
45 -55 43 -55 -2 0 -27 25 -56 55 -29 30 -49 55 -44 55 5 0 31 -25 57 -55z
m-7740 -146 c24 -68 51 -141 59 -161 9 -21 13 -38 10 -38 -3 0 -1 -6 4 -12 6
-7 18 -38 28 -68 10 -30 21 -59 25 -63 4 -4 108 -23 231 -43 123 -19 231 -36
239 -39 8 -3 114 -21 235 -40 121 -19 258 -42 305 -50 47 -8 171 -28 275 -45
180 -29 335 -54 610 -100 66 -12 217 -36 335 -55 118 -19 235 -39 260 -45 25
-5 135 -24 245 -40 110 -17 245 -39 300 -49 55 -11 165 -29 245 -41 80 -12
152 -26 160 -32 10 -6 4 -7 -20 -3 -19 3 -55 8 -80 11 -25 3 -92 14 -150 25
-58 11 -188 32 -290 48 -532 84 -757 121 -770 125 -8 3 -121 22 -250 41 -129
19 -242 38 -250 41 -8 3 -123 23 -255 44 -601 96 -751 120 -763 125 -8 3 -118
21 -245 40 -128 20 -250 40 -272 45 -22 5 -54 12 -72 15 -28 6 -35 14 -54 63
-36 96 -149 422 -149 431 0 16 16 -22 54 -130z m7840 32 c-6 -7 -44 31 -44 43
0 6 11 -1 24 -14 13 -14 22 -27 20 -29z m58 -57 c24 -25 45 -51 47 -58 2 -6
-7 0 -19 14 -13 14 -37 40 -54 58 -16 17 -27 32 -23 32 4 0 26 -21 49 -46z
m94 -102 c-6 -5 -36 23 -36 34 0 4 9 -1 20 -11 11 -10 18 -20 16 -23z m69 -80
c-3 -3 -6 -3 -7 -1 -2 2 -16 20 -33 39 l-30 35 37 -34 c21 -19 36 -37 33 -39z
m65 -67 c8 -11 0 -7 -18 9 -18 17 -32 34 -32 38 0 10 28 -17 50 -47z m110
-121 c0 -11 -50 38 -62 61 -6 11 6 3 26 -17 20 -20 36 -40 36 -44z m-5247
-102 c68 -49 58 -50 -13 -2 -33 22 -60 43 -60 46 0 7 13 -1 73 -44z m5377 -34
l63 -73 -66 65 c-57 55 -77 80 -64 80 2 0 32 -33 67 -72z m-5145 -123 c83 -56
191 -131 242 -166 140 -97 132 -91 103 -78 -14 7 -69 42 -122 80 -53 37 -107
73 -120 80 -13 7 -25 15 -28 19 -3 4 -60 44 -127 89 -68 45 -123 84 -123 87 0
7 5 4 175 -111z m5243 20 c15 -14 23 -25 19 -25 -4 0 -20 11 -35 25 -15 14
-23 25 -19 25 4 0 20 -11 35 -25z m182 -197 c0 -4 -16 8 -35 28 -19 19 -35 38
-35 41 0 4 16 -8 35 -27 19 -19 35 -37 35 -42z m50 -53 c13 -14 19 -25 14 -25
-8 1 -50 50 -41 50 2 0 14 -11 27 -25z m191 -207 c18 -20 23 -28 16 -28 -2 0
-14 11 -27 25 -13 14 -20 25 -15 25 4 0 16 -10 26 -22z m-2096 -36 c6 -4 16
-14 22 -23 10 -13 10 -16 -2 -16 -8 0 -13 3 -10 5 2 3 -5 13 -17 23 -20 18
-14 27 7 11z m2150 -22 c10 -11 16 -20 13 -20 -3 0 -13 9 -23 20 -10 11 -16
20 -13 20 3 0 13 -9 23 -20z m-4015 0 c0 -8 -24 -20 -41 -20 -4 0 -6 6 -3 13
5 14 44 21 44 7z m27 -58 c5 -14 107 -141 158 -198 6 -6 53 -64 105 -129 52
-65 111 -137 130 -159 19 -23 45 -54 58 -70 12 -16 25 -26 28 -23 4 4 -16 32
-43 64 -77 91 -126 153 -120 153 5 0 98 -110 195 -232 18 -23 31 -47 28 -54
-3 -7 13 -32 35 -56 42 -45 42 -37 1 22 -19 27 -16 25 16 -10 25 -28 36 -47
29 -52 -7 -4 3 -23 27 -52 21 -26 41 -44 46 -41 5 3 12 0 16 -6 4 -8 3 -9 -4
-5 -20 12 -13 -8 13 -37 14 -16 29 -26 34 -23 5 3 15 -2 22 -12 13 -15 12 -16
-3 -3 -36 28 -16 -6 46 -79 35 -41 62 -77 59 -80 -2 -3 -14 8 -26 25 -12 16
-49 62 -82 101 -83 99 -218 263 -300 364 -38 47 -144 175 -235 285 -91 110
-190 230 -219 268 l-55 67 -25 -22 -26 -23 24 27 c19 22 27 25 43 17 10 -6 22
-18 25 -27z m1828 -42 c10 -11 16 -20 13 -20 -3 0 -13 9 -23 20 -10 11 -16 20
-13 20 3 0 13 -9 23 -20z m-1670 -120 c11 -13 15 -20 8 -17 -6 4 -30 31 -54
60 -31 38 -33 43 -8 17 19 -20 43 -46 54 -60z m1850 -40 c10 -11 25 -22 34
-25 17 -5 47 -45 34 -45 -13 1 -109 90 -97 90 6 0 19 -9 29 -20z m-4882 3 c-7
-2 -19 -2 -25 0 -7 3 -2 5 12 5 14 0 19 -2 13 -5z m3148 -105 c42 -57 9 -25
-46 45 -38 48 -43 57 -15 27 23 -25 50 -57 61 -72z m-3274 96 c-3 -3 -12 -4
-19 -1 -8 3 -5 6 6 6 11 1 17 -2 13 -5z m7292 -69 c-3 -2 -16 10 -29 28 l-23
32 29 -27 c15 -15 26 -30 23 -33z m-7546 38 c-7 -2 -19 -2 -25 0 -7 3 -2 5 12
5 14 0 19 -2 13 -5z m1797 -3 c-8 -5 -24 -9 -35 -9 l-20 0 20 9 c11 5 27 9 35
9 13 1 13 0 0 -9z m-2032 -17 c-10 -2 -26 -2 -35 0 -10 3 -2 5 17 5 19 0 27
-2 18 -5z m-121 -9 c-3 -3 -12 -4 -19 -1 -8 3 -5 6 6 6 11 1 17 -2 13 -5z
m-130 -10 c-3 -3 -12 -4 -19 -1 -8 3 -5 6 6 6 11 1 17 -2 13 -5z m-504 -51
c-7 -2 -19 -2 -25 0 -7 3 -2 5 12 5 14 0 19 -2 13 -5z m2160 0 c-7 -2 -19 -2
-25 0 -7 3 -2 5 12 5 14 0 19 -2 13 -5z m-86 -9 c-3 -3 -12 -4 -19 -1 -8 3 -5
6 6 6 11 1 17 -2 13 -5z m6571 -59 c-3 -3 -18 11 -33 32 l-28 38 34 -32 c18
-18 30 -35 27 -38z m-6655 48 c-7 -2 -19 -2 -25 0 -7 3 -2 5 12 5 14 0 19 -2
13 -5z m-70 -10 c-7 -2 -21 -2 -30 0 -10 3 -4 5 12 5 17 0 24 -2 18 -5z m-64
-7 c-12 -10 -59 -15 -59 -6 0 5 14 10 32 10 17 0 29 -2 27 -4z m2982 -13 c13
-16 12 -17 -3 -4 -10 7 -18 15 -18 17 0 8 8 3 21 -13z m-3053 2 c-6 -6 -224
-35 -252 -34 -30 2 171 37 218 38 22 1 37 -1 34 -4z m-323 -45 c-27 -5 -63 -8
-80 -8 -25 1 -23 2 10 8 22 4 58 7 80 7 38 0 37 0 -10 -7z m-160 -21 c-27 -5
-63 -11 -80 -14 -43 -6 -592 -80 -900 -120 -143 -19 -289 -39 -325 -45 -36 -6
-150 -22 -254 -35 -103 -13 -191 -27 -195 -30 -61 -62 -1259 -1245 -1266
-1251 -26 -22 1202 1211 1260 1265 7 6 93 19 350 51 132 17 281 37 330 45 50
8 167 24 260 35 147 18 229 28 495 65 246 35 310 43 340 43 29 0 26 -2 -15 -9z
m7416 -26 c13 -16 12 -17 -3 -4 -17 13 -22 21 -14 21 2 0 10 -8 17 -17z
m-3606 -51 c-3 -3 -11 0 -18 7 -9 10 -8 11 6 5 10 -3 15 -9 12 -12z m35 -68
c0 -3 -20 9 -45 26 -25 17 -45 33 -45 36 0 3 20 -9 45 -26 25 -17 45 -33 45
-36z m56 -35 c3 -6 -5 -3 -20 6 -14 10 -26 19 -26 22 0 7 39 -17 46 -28z m94
-15 c0 -2 -9 0 -20 6 -11 6 -20 13 -20 16 0 2 9 0 20 -6 11 -6 20 -13 20 -16z
m-34 -25 c3 -6 -5 -3 -20 6 -14 10 -26 19 -26 22 0 7 39 -17 46 -28z m154
-105 c0 -6 -64 35 -95 61 -16 14 -2 7 33 -15 34 -23 62 -43 62 -46z m-9 59
c13 -16 12 -17 -3 -4 -10 7 -18 15 -18 17 0 8 8 3 21 -13z m-501 -68 c13 -14
21 -25 18 -25 -2 0 -15 11 -28 25 -13 14 -21 25 -18 25 2 0 15 -11 28 -25z
m620 -61 c0 -2 -9 0 -20 6 -11 6 -20 13 -20 16 0 2 9 0 20 -6 11 -6 20 -13 20
-16z m100 -71 c0 -8 -38 17 -51 33 -9 11 -2 9 19 -6 17 -13 32 -25 32 -27z
m-550 -78 c13 -14 21 -25 18 -25 -2 0 -15 11 -28 25 -13 14 -21 25 -18 25 2 0
15 -11 28 -25z m690 -11 c0 -2 -9 0 -20 6 -11 6 -20 13 -20 16 0 2 9 0 20 -6
11 -6 20 -13 20 -16z m100 -69 c0 -8 -68 36 -82 52 -7 10 8 2 35 -16 26 -17
47 -34 47 -36z m-749 28 c13 -16 12 -17 -3 -4 -10 7 -18 15 -18 17 0 8 8 3 21
-13z m70 -115 c17 -31 2 -19 -32 25 -30 39 -31 40 -5 17 15 -14 32 -33 37 -42z
m-10 45 c13 -16 12 -17 -3 -4 -10 7 -18 15 -18 17 0 8 8 3 21 -13z m873 -82
c-2 -3 -12 3 -22 13 -16 17 -16 18 5 5 12 -7 20 -15 17 -18z m-785 -43 c4 7
12 3 20 -11 13 -20 13 -21 -2 -8 -22 18 -22 3 1 -22 9 -11 12 -17 5 -14 -6 4
-30 31 -53 60 -26 32 -30 39 -10 18 20 -21 35 -30 39 -23z m-2244 4 c-3 -3
-11 0 -18 7 -9 10 -8 11 6 5 10 -3 15 -9 12 -12z m3100 -2 c3 -6 -1 -7 -9 -4
-18 7 -21 14 -7 14 6 0 13 -4 16 -10z m-3177 -68 c15 12 16 11 3 -5 -8 -10
-20 -16 -26 -13 -7 2 -19 -1 -26 -7 -7 -7 -5 -2 6 11 11 13 21 19 23 12 3 -8
9 -7 20 2z m2388 -34 l29 -33 -32 29 c-31 28 -38 36 -30 36 2 0 16 -15 33 -32z
m25 5 c13 -16 12 -17 -3 -4 -10 7 -18 15 -18 17 0 8 8 3 21 -13z m-5101 -3
c-8 -5 -19 -10 -25 -10 -5 0 -3 5 5 10 8 5 20 10 25 10 6 0 3 -5 -5 -10z
m5139 -84 c-2 -2 -13 8 -23 22 l-19 27 24 -22 c12 -12 21 -24 18 -27z m-2586
-12 c-3 -9 -1 -19 5 -23 7 -4 4 -11 -9 -20 -16 -9 -19 -10 -13 0 5 9 2 10 -9
6 -26 -10 -29 8 -6 37 21 27 43 27 32 0z m2687 -107 c0 -4 -14 9 -32 30 -51
60 -57 73 -11 23 23 -25 42 -49 43 -53z m-3860 39 c0 -2 -8 -10 -17 -17 -16
-13 -17 -12 -4 4 13 16 21 21 21 13z m-40 -31 c0 -2 -10 -9 -22 -15 -22 -11
-22 -10 -4 4 21 17 26 19 26 11z m3945 -61 c9 -15 12 -23 6 -20 -11 7 -35 46
-28 46 3 0 12 -12 22 -26z m-4015 12 c0 -2 -7 -7 -16 -10 -8 -3 -12 -2 -9 4 6
10 25 14 25 6z m4083 -91 c23 -32 17 -32 -13 0 -13 14 -19 25 -14 25 5 0 17
-12 27 -25z m-4233 0 c0 -2 -10 -9 -22 -15 -22 -11 -22 -10 -4 4 21 17 26 19
26 11z m-50 -29 c0 -2 -8 -10 -17 -17 -16 -13 -17 -12 -4 4 13 16 21 21 21 13z
m4325 -26 c10 -11 16 -20 13 -20 -3 0 -13 9 -23 20 -10 11 -16 20 -13 20 3 0
13 -9 23 -20z m1249 -25 c22 -19 35 -35 29 -35 -5 0 -27 16 -49 35 -21 19 -34
34 -29 34 6 0 28 -15 49 -34z m-1199 -35 c10 -11 16 -20 13 -20 -3 0 -13 9
-23 20 -10 11 -16 20 -13 20 3 0 13 -9 23 -20z m1410 -195 c44 -48 91 -100
104 -114 69 -76 182 -199 224 -244 27 -29 81 -87 120 -131 40 -43 91 -99 114
-125 24 -25 43 -50 43 -55 0 -10 -20 11 -135 139 -44 49 -87 96 -95 105 -8 9
-60 65 -116 126 -56 60 -172 186 -258 279 -86 94 -162 179 -167 190 -11 22 39
-29 166 -170z m-1370 145 c10 -11 16 -20 13 -20 -3 0 -13 9 -23 20 -10 11 -16
20 -13 20 3 0 13 -9 23 -20z m-4755 -85 c0 -2 -10 -9 -22 -15 -22 -11 -22 -10
-4 4 21 17 26 19 26 11z m-2720 -38 c0 -2 -19 -21 -42 -42 l-43 -40 40 43 c36
39 45 47 45 39z m2620 -21 c0 -2 -8 -10 -17 -17 -16 -13 -17 -12 -4 4 13 16
21 21 21 13z m5670 -936 c-8 -5 -49 -24 -90 -41 -41 -17 -104 -44 -140 -59
-36 -16 -150 -66 -255 -110 -496 -213 -673 -288 -960 -410 -170 -73 -377 -162
-460 -197 -82 -36 -202 -87 -265 -113 -63 -26 -153 -65 -200 -85 -47 -20 -110
-47 -140 -60 -85 -35 -249 -105 -310 -132 -30 -14 -66 -29 -79 -35 -14 -5
-110 -45 -215 -90 -105 -44 -301 -127 -436 -184 -135 -58 -258 -111 -275 -119
-16 -8 -79 -34 -140 -59 -210 -85 -260 -106 -300 -125 -22 -11 -74 -33 -115
-50 -41 -16 -144 -59 -229 -95 -85 -36 -156 -64 -158 -62 -2 2 25 16 59 31 35
15 102 45 151 66 48 22 89 39 92 39 2 0 35 14 72 31 38 17 84 37 103 44 19 7
55 22 80 33 25 12 81 36 125 55 263 112 426 182 470 202 28 13 131 57 230 98
242 102 340 144 402 173 28 13 54 24 57 24 6 0 283 117 321 135 17 9 73 33
125 54 52 21 160 67 240 101 80 34 278 118 440 187 162 69 340 144 395 168 95
40 174 74 707 299 124 53 237 100 250 105 13 5 52 22 88 39 36 16 74 32 85 36
11 3 77 30 145 60 118 52 164 68 130 46z m-4790 -2040 c-8 -5 -19 -10 -25 -10
-5 0 -3 5 5 10 8 5 20 10 25 10 6 0 3 -5 -5 -10z m-105 -45 c-69 -34 -109 -46
-70 -22 28 17 118 55 130 55 6 0 -21 -15 -60 -33z m-105 -45 c-8 -5 -19 -10
-25 -10 -5 0 -3 5 5 10 8 5 20 10 25 10 6 0 3 -5 -5 -10z m-50 -20 c-8 -5 -19
-10 -25 -10 -5 0 -3 5 5 10 8 5 20 10 25 10 6 0 3 -5 -5 -10z m-265 -110 c-3
-5 -12 -10 -18 -10 -7 0 -6 4 3 10 19 12 23 12 15 0z m-2390 -150 c-10 -11
-21 -17 -24 -14 -3 3 3 12 13 20 28 20 32 17 11 -6z m-95 -90 c-6 -11 -13 -20
-16 -20 -2 0 0 9 6 20 6 11 13 20 16 20 2 0 0 -9 -6 -20z m-65 -70 c-10 -11
-21 -18 -23 -15 -3 3 3 12 14 20 27 20 30 18 9 -5z m-96 -96 c-18 -20 -43 -40
-54 -46 -11 -6 1 10 28 36 56 54 77 62 26 10z m-110 -109 c-24 -25 -48 -45
-54 -45 -5 0 11 20 35 45 24 25 48 45 54 45 5 0 -11 -20 -35 -45z m-130 -131
c-41 -41 -87 -85 -104 -97 -16 -11 13 23 67 76 53 53 100 97 104 97 4 0 -26
-34 -67 -76z m-151 -149 c-23 -27 -34 -33 -22 -12 14 23 26 37 35 37 5 0 -1
-11 -13 -25z m-58 -58 c0 -1 -43 -45 -96 -97 -115 -113 -114 -100 0 17 69 71
96 93 96 80z m465 -267 c-3 -5 -12 -10 -18 -10 -7 0 -6 4 3 10 19 12 23 12 15
0z m-235 -100 c-19 -11 -39 -19 -45 -19 -5 0 6 8 25 19 19 11 40 19 45 19 6 0
-6 -8 -25 -19z m-127 -55 c-72 -33 -122 -52 -113 -42 8 9 164 76 175 76 6 0
-22 -15 -62 -34z m-133 -55 c-8 -5 -19 -10 -25 -10 -5 0 -3 5 5 10 8 5 20 10
25 10 6 0 3 -5 -5 -10z m-45 -20 c-3 -5 -12 -10 -18 -10 -7 0 -6 4 3 10 19 12
23 12 15 0z m-90 -40 c-33 -16 -67 -29 -75 -29 -8 0 3 7 25 16 22 9 49 22 60
30 11 7 26 13 35 13 8 -1 -12 -14 -45 -30z m-100 -40 c-3 -5 -14 -10 -23 -9
-14 0 -13 2 3 9 27 11 27 11 20 0z m-65 -26 c0 -6 -65 -34 -77 -34 -9 1 58 39
70 40 4 0 7 -2 7 -6z m-120 -54 c-8 -5 -19 -10 -25 -10 -5 0 -3 5 5 10 8 5 20
10 25 10 6 0 3 -5 -5 -10z"/>
<path d="M7181 6125 c0 -5 11 -23 24 -40 14 -16 25 -25 25 -18 0 7 -11 25 -25
40 -13 15 -24 24 -24 18z"/>
<path d="M7544 19198 l-19 -23 23 19 c12 11 22 21 22 23 0 8 -8 2 -26 -19z"/>
<path d="M7409 19038 c-51 -62 -109 -131 -128 -154 -20 -22 -47 -53 -61 -70
-75 -88 -385 -450 -390 -454 -3 -3 -27 -32 -55 -65 -27 -33 -56 -66 -63 -74
-9 -10 -10 -17 -1 -27 16 -20 62 6 99 57 16 23 74 98 129 167 104 132 310 394
409 520 67 87 116 148 144 180 11 13 17 26 15 28 -3 3 -46 -46 -98 -108z"/>
<path d="M0 18182 l0 -538 122 -41 c68 -23 182 -62 253 -88 72 -25 138 -44
147 -41 10 2 22 -2 28 -9 14 -17 122 -57 146 -55 34 4 45 0 38 -12 -5 -7 0 -9
14 -6 12 3 26 1 31 -6 5 -6 22 -13 37 -14 15 -1 30 -5 33 -10 3 -4 21 -8 40
-9 18 -1 39 -7 46 -13 7 -6 20 -8 29 -4 9 3 23 3 32 0 13 -5 14 -9 4 -21 -11
-14 -10 -14 14 -6 14 6 26 7 26 3 0 -4 11 -8 25 -8 14 -1 33 -5 43 -9 9 -5 24
-9 32 -9 48 -6 100 -20 100 -28 0 -6 7 -8 15 -4 8 3 15 1 15 -5 0 -6 5 -7 10
-4 6 4 18 1 26 -6 9 -7 29 -13 46 -14 16 -1 33 -7 38 -14 6 -10 9 -10 15 -1 6
9 9 9 15 -1 5 -7 15 -14 23 -15 34 -5 57 -16 51 -26 -4 -6 3 -5 16 2 17 9 24
9 33 -3 16 -19 55 -28 61 -13 3 7 5 7 5 -1 1 -7 12 -13 25 -13 14 0 28 -5 32
-11 4 -8 9 -7 15 2 6 10 9 11 9 2 0 -8 13 -13 30 -13 17 0 45 -8 63 -17 18 -9
34 -18 37 -18 5 -2 17 -6 75 -28 17 -7 32 -12 35 -13 22 -3 90 -38 90 -46 0
-5 9 -6 20 -3 12 4 20 2 20 -5 0 -7 7 -10 15 -6 10 3 15 -1 15 -12 0 -14 2
-15 10 -2 8 12 10 12 16 -3 3 -9 10 -15 14 -12 5 3 11 1 15 -5 4 -6 11 -8 16
-5 5 4 9 0 9 -7 0 -7 11 -14 23 -14 13 -1 42 -14 65 -29 22 -15 45 -24 51 -21
5 4 13 1 18 -6 4 -7 23 -21 41 -30 18 -10 30 -13 27 -8 -3 5 37 -13 89 -40 52
-28 101 -50 110 -50 9 0 16 -4 16 -10 0 -12 55 -41 64 -33 3 4 6 1 6 -5 0 -6
10 -14 23 -17 24 -7 159 -60 192 -75 11 -6 99 -39 195 -75 156 -59 204 -77
275 -105 19 -8 157 -58 513 -187 123 -44 158 -53 175 -45 12 5 69 45 127 88
58 43 168 125 245 181 77 57 194 144 260 194 123 93 347 260 610 455 169 125
531 394 960 714 160 118 314 233 342 253 42 31 50 41 41 51 -8 8 -28 11 -53 9
-22 -3 -80 0 -130 6 -49 6 -229 22 -400 36 -170 14 -382 32 -470 40 -169 15
-931 80 -1050 90 -38 3 -106 10 -150 15 -44 6 -250 24 -458 40 -208 17 -411
35 -450 40 -40 5 -189 19 -332 30 -291 23 -692 58 -744 65 -19 3 -168 17 -330
31 -163 14 -314 27 -336 29 -116 11 -157 15 -340 30 -110 9 -208 21 -218 26
-10 5 -22 7 -28 4 -5 -4 -62 -3 -127 1 -64 4 -109 10 -100 13 9 3 -35 7 -99 7
-79 1 -118 6 -123 14 -4 7 -13 10 -18 6 -6 -4 -62 -2 -124 4 -172 15 -206 18
-298 25 -126 9 -165 16 -149 26 9 6 1 9 -26 9 -29 0 -36 -3 -25 -10 12 -8 9
-10 -12 -10 -16 0 -28 5 -28 10 0 6 -4 10 -10 10 -7 0 -10 -186 -10 -538z"/>
<path d="M193 18703 c9 -2 25 -2 35 0 9 3 1 5 -18 5 -19 0 -27 -2 -17 -5z"/>
<path d="M7600 18513 c-8 -3 -28 -11 -45 -19 -16 -7 -68 -25 -115 -40 -47 -15
-86 -31 -88 -35 -2 -4 -10 -5 -18 -2 -8 3 -14 0 -14 -6 0 -16 18 -14 64 8 23
11 87 34 144 52 56 18 102 37 102 41 0 9 -8 9 -30 1z"/>
<path d="M7286 18401 c-3 -4 -26 -14 -51 -21 -25 -7 -44 -15 -41 -17 7 -7 116
30 116 39 0 11 -17 10 -24 -1z"/>
<path d="M7160 18350 c0 -5 5 -10 10 -10 6 0 10 5 10 10 0 6 -4 10 -10 10 -5
0 -10 -4 -10 -10z"/>
<path d="M7130 18340 c0 -5 5 -10 10 -10 6 0 10 5 10 10 0 6 -4 10 -10 10 -5
0 -10 -4 -10 -10z"/>
<path d="M7080 18323 l-25 -15 25 6 c14 3 28 6 33 6 4 0 7 5 7 10 0 13 -9 11
-40 -7z"/>
<path d="M6980 18320 c0 -5 5 -10 10 -10 6 0 10 5 10 10 0 6 -4 10 -10 10 -5
0 -10 -4 -10 -10z"/>
<path d="M6945 18280 c-13 -5 -14 -9 -5 -9 8 0 24 4 35 9 13 5 14 9 5 9 -8 0
-24 -4 -35 -9z"/>
<path d="M6860 18266 c0 -8 -6 -16 -12 -19 -7 -2 -9 -8 -5 -13 4 -5 12 -2 16
5 5 7 14 10 20 7 6 -4 11 -2 11 3 0 6 -6 11 -12 11 -9 0 -8 4 2 10 13 8 12 10
-2 10 -10 0 -18 -6 -18 -14z"/>
<path d="M6705 18080 c-22 -24 -18 -31 13 -19 12 5 22 15 22 24 0 21 -13 19
-35 -5z"/>
<path d="M1150 17270 c8 -5 20 -10 25 -10 6 0 3 5 -5 10 -8 5 -19 10 -25 10
-5 0 -3 -5 5 -10z"/>
<path d="M1435 16870 c3 -5 8 -10 11 -10 2 0 4 5 4 10 0 6 -5 10 -11 10 -5 0
-7 -4 -4 -10z"/>
<path d="M1740 16549 c0 -3 56 -63 125 -133 69 -71 125 -131 125 -133 0 -3 58
-64 129 -136 71 -73 150 -156 176 -184 26 -29 52 -50 58 -46 5 3 7 1 4 -4 -4
-6 1 -17 10 -24 10 -8 14 -9 10 -2 -4 6 -3 15 3 18 6 4 10 3 9 -2 -3 -19 2
-43 9 -41 14 5 63 -35 58 -48 -3 -8 0 -11 10 -7 7 3 14 1 14 -3 0 -19 46 -60
68 -61 21 -2 22 0 10 15 -11 15 -11 16 3 4 14 -10 17 -9 22 9 4 15 2 19 -9 15
-10 -4 -12 -2 -8 6 5 8 2 9 -9 5 -9 -3 -16 -3 -16 1 3 21 -3 24 -14 7 -13 -16
-14 -15 -9 14 3 23 7 29 13 20 4 -7 11 -11 14 -7 3 3 -1 13 -10 21 -8 9 -15
20 -15 26 0 6 -3 11 -7 12 -5 0 -17 2 -28 4 -11 2 -22 -1 -26 -7 -4 -7 -9 -7
-13 1 -4 6 -2 11 4 11 6 0 9 4 6 8 -7 12 25 8 50 -6 18 -9 24 -9 34 3 7 8 16
12 21 9 5 -3 6 2 3 11 -6 14 -9 14 -28 -2 l-21 -18 20 23 c16 20 17 25 5 32
-11 7 -16 5 -18 -8 -6 -27 -21 -37 -28 -19 -3 9 -9 15 -13 12 -4 -2 -8 3 -8
12 0 13 4 12 18 -5 l17 -22 -2 24 c0 13 -4 22 -8 20 -4 -2 -10 1 -13 7 -9 13
15 60 27 53 4 -3 8 -1 8 5 0 20 -20 21 -32 1 -7 -11 -17 -20 -22 -20 -5 0 -1
9 8 19 10 11 15 24 12 29 -4 6 3 8 16 5 23 -5 23 -5 3 10 -11 8 -23 13 -27 11
-4 -3 -5 2 -1 11 5 13 7 14 14 3 5 -7 9 -9 9 -4 0 6 6 1 14 -9 8 -11 12 -23
10 -27 -3 -5 -1 -8 5 -8 6 0 17 12 25 28 8 15 15 22 16 16 0 -5 -11 -25 -24
-43 -15 -20 -22 -40 -18 -53 3 -14 1 -19 -6 -14 -7 4 -12 3 -12 -2 0 -6 7 -12
15 -16 8 -3 14 -2 14 2 -4 26 3 52 14 49 6 -1 12 5 13 13 1 34 16 80 26 80 6
0 7 -7 3 -17 -5 -10 -9 -27 -10 -39 -1 -11 -11 -35 -23 -52 -22 -30 -22 -31
-3 -49 16 -16 19 -34 12 -75 0 -5 -5 -8 -11 -8 -5 0 -7 8 -3 18 5 16 5 16 -12
0 -16 -15 -16 -18 -2 -38 9 -12 13 -29 10 -36 -3 -8 0 -14 6 -14 6 0 11 5 11
12 0 7 11 -3 25 -22 29 -39 32 -48 10 -30 -12 10 -15 10 -15 -2 0 -7 9 -14 20
-15 11 -1 20 2 20 6 0 4 10 7 21 7 12 -1 23 5 25 12 1 7 0 8 -3 2 -8 -16 -33
-12 -27 5 4 8 1 15 -6 15 -6 0 -9 -4 -5 -9 3 -5 1 -12 -5 -16 -23 -14 -8 24
16 40 21 13 24 19 13 26 -11 7 -11 11 3 21 10 7 14 18 10 25 -5 8 -14 6 -32
-8 -21 -16 -22 -18 -5 -13 19 5 19 5 3 -9 -22 -17 -23 -31 -3 -23 8 3 15 2 15
-3 0 -12 -49 -31 -55 -21 -3 4 0 10 7 12 10 4 9 9 -3 21 -9 9 -19 13 -23 10
-3 -4 -6 -1 -6 5 0 16 30 15 31 0 0 -16 21 31 24 54 1 9 -3 14 -8 11 -5 -3 -7
0 -5 8 3 8 11 13 17 11 7 -1 9 3 6 9 -5 8 -12 6 -23 -5 -14 -13 -14 -20 -5
-36 8 -11 9 -21 3 -25 -13 -8 -19 29 -17 98 2 50 6 60 31 81 22 17 26 25 16
31 -8 5 -11 4 -6 -3 3 -6 -2 -16 -13 -21 -25 -14 -31 -14 -31 -1 0 6 8 10 18
10 10 0 13 3 7 8 -11 7 -12 48 -1 59 3 3 6 -5 7 -18 l0 -24 9 23 c11 27 20 29
15 2 -5 -26 8 -33 31 -15 22 16 12 32 -23 38 -11 1 -28 9 -37 16 -8 7 -20 10
-26 6 -5 -3 -10 -2 -10 4 0 5 -15 13 -32 16 -18 4 -40 13 -48 19 -8 7 -40 23
-70 35 -30 13 -83 36 -117 52 -34 16 -66 29 -71 29 -5 0 -22 6 -38 14 -27 13
-47 22 -149 66 -22 10 -80 34 -130 54 -158 65 -170 70 -177 81 -4 5 -8 8 -8 4z
m695 -338 c-3 -6 -11 -11 -17 -11 -6 0 -6 6 2 15 14 17 26 13 15 -4z m55 -11
c0 -5 -2 -10 -4 -10 -3 0 -8 5 -11 10 -3 6 -1 10 4 10 6 0 11 -4 11 -10z m-31
-31 c-22 -13 -31 -11 -17 5 7 8 17 12 22 9 4 -3 2 -9 -5 -14z m124 -13 c12
-18 13 -25 4 -29 -17 -6 -41 20 -24 27 9 3 8 7 -3 15 -8 6 -10 11 -4 11 7 0
19 -11 27 -24z m-67 2 c4 -6 3 -8 -4 -4 -6 3 -13 2 -17 -4 -3 -5 3 -10 14 -10
13 0 21 7 21 17 0 9 3 14 6 11 3 -4 6 -10 6 -15 0 -4 4 -13 9 -19 5 -6 3 -18
-6 -30 -14 -18 -14 -18 -10 3 3 17 -1 21 -16 18 -10 -2 -21 1 -25 6 -4 7 -10
7 -18 0 -8 -7 -17 -6 -26 1 -12 8 -12 9 3 4 11 -3 17 0 17 10 0 8 4 13 9 9 5
-3 12 -1 16 5 8 13 12 13 21 -2z m-72 -51 c3 4 6 1 6 -5 0 -7 -5 -12 -11 -12
-5 0 -7 -5 -4 -10 4 -6 1 -9 -7 -8 -7 2 -12 -3 -10 -10 1 -8 -2 -11 -8 -7 -8
5 -6 12 4 24 14 15 14 20 0 42 l-16 24 20 -22 c11 -12 22 -19 26 -16z m236 29
c0 -3 -4 -8 -10 -11 -5 -3 -10 -1 -10 4 0 6 5 11 10 11 6 0 10 -2 10 -4z
m-235 -96 c4 -6 1 -9 -7 -8 -7 2 -14 -8 -16 -22 -2 -14 -7 -29 -12 -33 -11
-12 1 45 13 61 12 15 14 15 22 2z m144 -84 c1 -6 -5 -1 -13 9 -8 11 -12 24 -8
29 5 9 20 -17 21 -38z m-159 -6 c0 -11 -4 -20 -9 -20 -5 0 -7 9 -4 20 3 11 7
20 9 20 2 0 4 -9 4 -20z m80 -85 c0 -8 -4 -15 -10 -15 -5 0 -7 7 -4 15 4 8 8
15 10 15 2 0 4 -7 4 -15z"/>
<path d="M2691 16116 c-9 -11 -9 -15 1 -19 7 -2 10 -8 6 -12 -4 -4 -14 -2 -23
5 -9 7 -15 8 -15 2 0 -6 6 -12 13 -15 8 -3 7 -9 -6 -19 -18 -13 -17 -14 6 -13
14 0 29 4 33 8 5 4 0 5 -11 2 -18 -6 -17 -4 3 13 12 12 18 23 13 27 -6 3 -8
12 -4 20 7 19 -1 19 -16 1z"/>
<path d="M2730 16100 c10 -18 9 -24 -1 -31 -12 -7 -12 -9 -1 -9 8 0 17 10 20
23 6 20 7 20 13 -8 l7 -30 1 33 c0 17 -3 32 -8 32 -5 0 -17 3 -26 7 -15 5 -16
3 -5 -17z"/>
<path d="M2780 16090 c0 -5 7 -10 16 -10 8 0 12 5 9 10 -3 6 -10 10 -16 10 -5
0 -9 -4 -9 -10z"/>
<path d="M2820 16069 c0 -5 5 -7 10 -4 6 3 10 -1 10 -9 0 -10 6 -13 15 -10 8
4 15 10 15 16 0 5 -4 6 -10 3 -5 -3 -10 -1 -10 4 0 6 -7 11 -15 11 -8 0 -15
-5 -15 -11z"/>
<path d="M2884 16041 c0 -11 4 -17 8 -15 4 3 8 12 8 20 0 8 -4 14 -8 14 -4 0
-8 -9 -8 -19z"/>
<path d="M2610 16027 c0 -9 6 -17 13 -17 8 0 7 -4 -3 -10 -9 -6 -10 -10 -3
-10 19 0 22 14 7 35 -12 16 -14 17 -14 2z"/>
<path d="M2815 16020 c3 -5 8 -10 11 -10 2 0 4 5 4 10 0 6 -5 10 -11 10 -5 0
-7 -4 -4 -10z"/>
<path d="M2861 16014 c0 -11 3 -14 6 -6 3 7 2 16 -1 19 -3 4 -6 -2 -5 -13z"/>
<path d="M2949 16028 c-1 -2 -3 -13 -4 -25 -2 -19 1 -21 16 -12 24 12 25 21 2
12 -12 -5 -15 -2 -10 10 5 13 1 26 -4 15z"/>
<path d="M2501 16011 c-7 -5 -12 -14 -10 -20 2 -6 10 -2 17 9 14 22 13 23 -7
11z"/>
<path d="M2770 15995 c13 -14 26 -25 28 -25 3 0 -5 11 -18 25 -13 14 -26 25
-28 25 -3 0 5 -11 18 -25z"/>
<path d="M2882 15989 c-10 -15 -9 -17 3 -13 10 4 13 0 10 -14 -2 -11 3 -23 11
-26 7 -3 11 -12 8 -20 -3 -8 -1 -17 5 -21 7 -4 8 1 4 12 -6 15 -4 16 9 5 13
-10 18 -9 29 5 12 16 12 17 -2 6 -19 -15 -40 1 -32 26 4 12 3 13 -5 3 -7 -11
-10 -11 -15 2 -3 8 0 19 8 23 12 7 11 10 -3 20 -15 9 -21 7 -30 -8z"/>
<path d="M2985 15989 c-4 -6 -5 -12 -2 -15 2 -3 7 2 10 11 7 17 1 20 -8 4z"/>
<path d="M2805 15960 c-3 -6 1 -7 9 -4 18 7 21 14 7 14 -6 0 -13 -4 -16 -10z"/>
<path d="M3016 15955 c-9 -26 -7 -32 5 -12 6 10 9 21 6 23 -2 3 -7 -2 -11 -11z"/>
<path d="M3034 15922 c4 -7 2 -21 -5 -30 -12 -15 -11 -15 6 0 16 15 17 20 6
30 -11 11 -13 10 -7 0z"/>
<path d="M2780 15891 c0 -7 -5 -9 -12 -5 -7 5 -8 3 -3 -5 5 -9 10 -10 18 -2 6
6 8 14 4 18 -4 3 -7 1 -7 -6z"/>
<path d="M3091 15884 c0 -11 3 -14 6 -6 3 7 2 16 -1 19 -3 4 -6 -2 -5 -13z"/>
<path d="M2743 15865 c0 -8 4 -12 9 -9 5 3 6 10 3 15 -9 13 -12 11 -12 -6z"/>
<path d="M2765 15820 c-3 -5 -1 -10 4 -10 6 0 11 5 11 10 0 6 -2 10 -4 10 -3
0 -8 -4 -11 -10z"/>
<path d="M2680 15811 c0 -10 19 -25 25 -20 1 2 -3 10 -11 17 -8 7 -14 8 -14 3z"/>
<path d="M2860 15811 c0 -5 5 -13 10 -16 6 -3 10 -2 10 4 0 5 -4 13 -10 16 -5
3 -10 2 -10 -4z"/>
<path d="M2730 15806 c0 -2 8 -10 18 -17 15 -13 16 -12 3 4 -13 16 -21 21 -21
13z"/>
<path d="M2805 15801 c-3 -5 -2 -12 3 -15 5 -3 9 1 9 9 0 17 -3 19 -12 6z"/>
<path d="M2775 15791 c-3 -5 -2 -12 3 -15 5 -3 9 1 9 9 0 17 -3 19 -12 6z"/>
<path d="M2580 15744 c0 -17 17 -36 24 -26 3 5 -1 15 -9 22 -8 7 -15 9 -15 4z"/>
<path d="M2683 15724 c-10 -21 -9 -23 11 -21 17 2 21 -3 20 -26 -1 -21 2 -25
12 -17 8 7 14 8 18 1 4 -6 -3 -15 -14 -21 -23 -13 -36 6 -27 40 3 11 1 20 -4
20 -15 0 -10 -53 7 -75 14 -19 16 -19 28 -3 7 10 16 15 19 12 3 -3 4 1 3 10
-1 9 -8 22 -14 28 -22 22 -13 32 11 12 l22 -19 -20 24 -20 24 20 -7 c16 -6 18
-5 8 5 -10 10 -16 10 -25 1 -9 -9 -15 -6 -28 12 l-15 24 -12 -24z"/>
<path d="M2760 15740 c0 -5 5 -10 11 -10 5 0 7 5 4 10 -3 6 -8 10 -11 10 -2 0
-4 -4 -4 -10z"/>
<path d="M2614 15732 c2 -4 1 -14 -4 -22 -7 -12 -12 -11 -29 5 -12 10 -24 16
-27 13 -3 -3 2 -12 11 -19 9 -8 24 -22 34 -32 17 -17 19 -17 32 0 13 15 12 16
-6 10 -17 -6 -18 -5 -5 5 17 14 15 48 -1 48 -6 0 -8 -4 -5 -8z"/>
<path d="M2894 15670 c0 -13 4 -16 10 -10 7 7 7 13 0 20 -6 6 -10 3 -10 -10z"/>
<path d="M2629 15653 c-13 -17 -13 -17 6 -3 11 8 22 16 24 17 2 2 0 3 -6 3 -6
0 -17 -8 -24 -17z"/>
<path d="M2640 15631 c0 -5 5 -13 10 -16 6 -3 10 -2 10 4 0 5 -4 13 -10 16 -5
3 -10 2 -10 -4z"/>
<path d="M2672 15614 c1 -9 9 -19 16 -22 9 -3 13 2 10 14 -1 9 -9 19 -16 22
-9 3 -13 -2 -10 -14z"/>
<path d="M2701 15581 c-12 -21 -11 -22 11 -10 20 11 22 11 10 -3 -9 -11 -10
-18 -2 -23 5 -3 10 -1 10 5 0 6 4 9 9 5 5 -3 13 0 17 7 4 7 4 10 -1 6 -4 -4
-15 3 -25 14 l-17 22 -12 -23z"/>
<path d="M2760 15591 c0 -6 4 -13 10 -16 6 -3 7 1 4 9 -7 18 -14 21 -14 7z"/>
<path d="M2886 15571 c-4 -5 -2 -12 3 -15 5 -4 12 -2 15 3 4 5 2 12 -3 15 -5
4 -12 2 -15 -3z"/>
<path d="M2755 15540 c-19 -8 -19 -9 3 -9 12 -1 22 4 22 9 0 6 -1 10 -2 9 -2
0 -12 -4 -23 -9z"/>
<path d="M11095 15430 c-80 -60 -150 -110 -155 -110 -4 0 -11 -7 -14 -16 -6
-14 -3 -14 21 2 16 10 59 36 98 57 38 22 75 46 82 53 8 7 38 28 68 46 41 24
55 39 55 55 0 13 -2 23 -4 23 -2 0 -70 -49 -151 -110z"/>
<path d="M2820 15489 c0 -8 70 -42 76 -36 1 1 -15 12 -37 24 -21 12 -39 17
-39 12z"/>
<path d="M2898 15493 c6 -2 9 -10 6 -15 -4 -7 -2 -8 5 -4 13 9 5 26 -12 25 -9
0 -8 -2 1 -6z"/>
<path d="M11155 15389 c-49 -33 -180 -119 -290 -191 -110 -72 -211 -138 -225
-148 -14 -9 -87 -58 -164 -110 -76 -51 -141 -102 -144 -112 -3 -11 -10 -17
-19 -14 -22 9 -93 -43 -86 -62 3 -12 2 -13 -4 -5 -7 9 -15 8 -37 -6 -15 -10
-28 -22 -29 -27 -1 -5 -6 -8 -11 -6 -12 4 -37 -19 -30 -29 3 -5 -2 -6 -10 -3
-9 3 -16 1 -16 -6 0 -6 -4 -8 -10 -5 -5 3 -10 -1 -10 -10 0 -11 -5 -15 -16
-11 -10 4 -13 2 -8 -6 5 -8 2 -9 -9 -5 -17 6 -33 -8 -19 -17 9 -5 72 9 107 24
11 5 31 11 45 14 34 6 269 73 465 131 88 26 219 64 290 85 72 20 174 50 227
66 l98 29 0 243 c0 133 -1 242 -2 241 -2 0 -43 -27 -93 -60z"/>
<path d="M10708 12303 c6 -2 18 -2 25 0 6 3 1 5 -13 5 -14 0 -19 -2 -12 -5z"/>
<path d="M8600 6727 c0 -7 9 -18 20 -25 23 -14 26 -5 6 21 -16 20 -26 22 -26
4z"/>
<path d="M6526 6643 l-20 -27 27 20 c14 10 27 22 27 27 0 15 -16 6 -34 -20z"/>
<path d="M8665 6660 c3 -5 11 -10 16 -10 6 0 7 5 4 10 -3 6 -11 10 -16 10 -6
0 -7 -4 -4 -10z"/>
<path d="M6454 6568 l-29 -33 33 29 c30 28 37 36 29 36 -2 0 -16 -15 -33 -32z"/>
<path d="M8730 6580 c0 -5 5 -10 10 -10 6 0 10 5 10 10 0 6 -4 10 -10 10 -5 0
-10 -4 -10 -10z"/>
<path d="M6279 6393 l-34 -38 38 34 c34 33 42 41 34 41 -2 0 -19 -17 -38 -37z"/>
<path d="M6204 6318 l-19 -23 23 19 c12 11 22 21 22 23 0 8 -8 2 -26 -19z"/>
<path d="M6104 6218 l-29 -33 33 29 c30 28 37 36 29 36 -2 0 -16 -15 -33 -32z"/>
<path d="M9270 6031 c0 -5 5 -13 10 -16 6 -3 10 -2 10 4 0 5 -4 13 -10 16 -5
3 -10 2 -10 -4z"/>
<path d="M9430 5881 c0 -10 19 -25 25 -20 1 2 -3 10 -11 17 -8 7 -14 8 -14 3z"/>
<path d="M5480 5539 c0 -5 5 -7 10 -4 6 3 10 8 10 11 0 2 -4 4 -10 4 -5 0 -10
-5 -10 -11z"/>
<path d="M5154 5219 c-4 -7 -3 -10 3 -6 14 9 37 -19 28 -33 -4 -6 -14 -9 -24
-5 -13 5 -14 4 -3 -7 11 -11 17 -9 33 11 10 13 19 28 18 35 0 6 -3 6 -6 -2 -4
-10 -9 -10 -23 3 -14 12 -20 13 -26 4z"/>
<path d="M5109 5163 c-13 -16 -12 -17 4 -4 16 13 21 21 13 21 -2 0 -10 -8 -17
-17z"/>
<path d="M5069 5123 c-13 -16 -12 -17 4 -4 9 7 17 15 17 17 0 8 -8 3 -21 -13z"/>
<path d="M4520 4669 c0 -5 5 -7 10 -4 6 3 10 8 10 11 0 2 -4 4 -10 4 -5 0 -10
-5 -10 -11z"/>
<path d="M4483 4643 c-15 -5 -17 -23 -4 -23 5 0 11 7 15 15 3 8 4 15 3 14 -1
0 -8 -3 -14 -6z"/>
<path d="M4443 4595 c0 -8 4 -12 9 -9 5 3 6 10 3 15 -9 13 -12 11 -12 -6z"/>
<path d="M2752 2837 c-23 -23 -42 -46 -42 -49 0 -6 54 46 79 76 26 31 5 16
-37 -27z"/>
<path d="M2662 2746 c-17 -17 -32 -35 -32 -40 0 -5 17 7 37 27 45 45 41 57 -5
13z"/>
<path d="M9960 2716 c-16 -15 -27 -23 -580 -398 -85 -57 -225 -152 -310 -210
-85 -58 -234 -158 -330 -223 -96 -66 -233 -159 -305 -207 -71 -49 -247 -168
-390 -264 -143 -96 -348 -235 -455 -308 -436 -296 -980 -663 -1370 -924 -135
-91 -249 -168 -255 -173 -5 -5 1123 -9 2638 -9 l2647 0 0 918 0 918 -142 99
c-137 95 -328 231 -413 293 -22 16 -132 93 -245 172 -113 79 -234 164 -269
189 -108 77 -200 141 -203 141 -2 0 -10 -6 -18 -14z m965 -1106 c3 -6 -1 -7
-9 -4 -18 7 -21 14 -7 14 6 0 13 -4 16 -10z m-1935 -64 c0 -2 -8 -10 -17 -17
-16 -13 -17 -12 -4 4 13 16 21 21 21 13z m-70 -60 c0 -2 -7 -7 -16 -10 -8 -3
-12 -2 -9 4 6 10 25 14 25 6z m-40 -19 c0 -2 -10 -12 -22 -23 l-23 -19 19 23
c18 21 26 27 26 19z m-71 -60 c-2 -1 -13 -9 -24 -17 -19 -14 -19 -14 -6 3 7 9
18 17 24 17 6 0 8 -1 6 -3z m-149 -112 c-7 -8 -18 -15 -24 -15 -6 0 -2 7 8 15
25 19 32 19 16 0z m-41 -28 c-2 -1 -13 -9 -24 -17 -19 -14 -19 -14 -6 3 7 9
18 17 24 17 6 0 8 -1 6 -3z m-54 -37 c-3 -5 -27 -24 -53 -41 -54 -37 -46 -25
13 20 43 33 49 36 40 21z m-130 -98 c-32 -27 -95 -73 -95 -68 0 6 90 76 98 76
3 0 2 -4 -3 -8z m-105 -76 c0 -2 -21 -20 -47 -39 -27 -19 -67 -49 -90 -67 -24
-17 -43 -29 -43 -26 0 5 171 135 178 136 1 0 2 -2 2 -4z m-240 -181 c-7 -9
-15 -13 -19 -10 -3 3 1 10 9 15 21 14 24 12 10 -5z m-80 -59 c0 -3 -4 -8 -10
-11 -5 -3 -10 -1 -10 4 0 6 5 11 10 11 6 0 10 -2 10 -4z m-70 -50 c0 -2 -12
-11 -27 -20 l-28 -17 24 20 c23 21 31 25 31 17z m-70 -50 c0 -2 -8 -10 -17
-17 -16 -13 -17 -12 -4 4 13 16 21 21 21 13z m-110 -80 c0 -2 -8 -10 -17 -17
-16 -13 -17 -12 -4 4 13 16 21 21 21 13z m-70 -50 c0 -5 -107 -88 -130 -101
-27 -15 -1 8 63 57 67 50 67 50 67 44z"/>
</g>
</svg>
